<?xml version="1.0" encoding="UTF-8" standalone="no"?>
<!-- Created with Inkscape (http://www.inkscape.org/) -->

<svg
   width="119.94147mm"
   height="112.71469mm"
   viewBox="0 0 119.94147 112.71469"
   version="1.1"
   id="svg5"
   inkscape:version="1.1.1 (3bf5ae0d25, 2021-09-20)"
   sodipodi:docname="marcador de cajas.svg"
   inkscape:export-filename="/home/xizuth/Projects/pneumatic_book/docs/capitulo6/imgs/practicas_electroneumatica_src/marcador de cajas.png"
   inkscape:export-xdpi="211.77"
   inkscape:export-ydpi="211.77"
   xmlns:inkscape="http://www.inkscape.org/namespaces/inkscape"
   xmlns:sodipodi="http://sodipodi.sourceforge.net/DTD/sodipodi-0.dtd"
   xmlns="http://www.w3.org/2000/svg"
   xmlns:svg="http://www.w3.org/2000/svg">
  <sodipodi:namedview
     id="namedview7"
     pagecolor="#ffffff"
     bordercolor="#666666"
     borderopacity="1.0"
     inkscape:pageshadow="2"
     inkscape:pageopacity="0.0"
     inkscape:pagecheckerboard="0"
     inkscape:document-units="px"
     showgrid="false"
     inkscape:zoom="0.51045875"
     inkscape:cx="77.381375"
     inkscape:cy="308.54599"
     inkscape:window-width="1280"
     inkscape:window-height="738"
     inkscape:window-x="0"
     inkscape:window-y="0"
     inkscape:window-maximized="1"
     inkscape:current-layer="layer1" />
  <defs
     id="defs2" />
  <g
     inkscape:label="Layer 1"
     inkscape:groupmode="layer"
     id="layer1"
     style="display:inline"
     transform="translate(-61.412994,-111.74374)">
    <g
       id="g12385">
      <rect
         style="fill:#ff5555;fill-opacity:1;stroke:none;stroke-width:0.287807;stroke-linecap:round;stroke-miterlimit:4;stroke-dasharray:none"
         id="rect8460"
         width="10.720854"
         height="10.387603"
         x="101.4203"
         y="161.71506" />
      <rect
         style="fill:#9c7000;fill-opacity:0.709534;stroke:none;stroke-width:7.77255;stroke-linecap:round"
         id="rect5612"
         width="52.130116"
         height="5.2017312"
         x="80.569969"
         y="197.97191" />
      <path
         style="fill:#000000;stroke-width:0.264583"
         d="m 64.634817,224.10258 c 0,-0.17045 0.16442,-0.49787 0.36537,-0.72761 0.48089,-0.54978 3.3388,-4.80229 3.3388,-4.96807 0,-0.0708 0.23812,-0.4314 0.52917,-0.8014 0.29104,-0.37 0.52916,-0.77573 0.52916,-0.90163 0,-0.12589 -1.07859,-0.2289 -2.39686,-0.2289 -1.53054,0 -2.33776,-0.0956 -2.23335,-0.26458 0.10386,-0.16805 3.46419,-0.26452 9.20989,-0.26441 l 9.04636,1.8e-4 -0.0656,-5.99682 c -0.0361,-3.29825 -0.12175,-6.053 -0.19042,-6.12167 -0.0687,-0.0687 -0.59117,-0.12486 -1.16111,-0.12486 h -1.03626 l -0.17832,-1.5762 c -0.0981,-0.86691 -0.0977,-2.22127 7.6e-4,-3.00969 l 0.17911,-1.43349 26.229023,0.0692 26.22904,0.0692 v 2.91041 2.91042 l -1.25677,0.0806 -1.25677,0.0806 v 6.07092 6.07092 h 14.13959 c 7.77678,0 14.19578,0.0909 14.26444,0.20202 0.0687,0.1111 -0.22196,0.71063 -0.64584,1.33229 -0.42388,0.62165 -0.77069,1.2209 -0.77069,1.33167 0,0.11077 -0.18227,0.43397 -0.40504,0.71823 -0.22277,0.28426 -0.87795,1.17168 -1.45596,1.97204 -0.57801,0.80037 -1.14589,1.57428 -1.26195,1.7198 -0.11607,0.14552 -0.29059,0.47294 -0.38782,0.7276 -0.20278,0.53108 -0.72381,0.62681 -0.72005,0.13229 0.002,-0.32486 1.29843,-2.40312 2.89315,-4.63958 0.44467,-0.62362 0.8085,-1.20055 0.8085,-1.28207 0,-0.0815 0.23073,-0.47226 0.51274,-0.86829 l 0.51273,-0.72007 -2.21912,-0.0612 -2.21912,-0.0612 -0.44811,0.87268 c -0.24645,0.47998 -1.14545,1.8563 -1.99777,3.05849 -0.85233,1.2022 -1.54968,2.29761 -1.54968,2.43425 0,0.13664 -0.15781,0.34365 -0.35068,0.46003 -0.19288,0.11637 -0.42727,0.41994 -0.52087,0.6746 -0.19506,0.53073 -0.7172,0.62755 -0.71344,0.13229 0.002,-0.32126 1.30362,-2.41202 2.84043,-4.56406 0.41568,-0.58208 0.83735,-1.23693 0.93705,-1.45521 0.0997,-0.21828 0.36857,-0.65346 0.59748,-0.96706 l 0.41621,-0.57019 -2.19841,-0.0129 -2.1984,-0.0129 -2.24896,3.46406 c -1.23692,1.90524 -2.33441,3.68569 -2.43887,3.95657 -0.19818,0.51398 -1.00071,0.69242 -1.00071,0.2225 0,-0.1485 0.94432,-1.68884 2.09847,-3.42296 3.09207,-4.64588 3.03144,-4.20277 0.5751,-4.20277 h -2.08521 l -0.91493,1.36818 c -0.50322,0.7525 -1.67062,2.52903 -2.59424,3.94786 -1.57413,2.41812 -2.10626,2.9942 -2.10626,2.28019 0,-0.36499 1.08589,-2.17948 1.37779,-2.30224 0.11534,-0.0485 0.20971,-0.24695 0.20971,-0.44098 0,-0.19402 0.092,-0.39246 0.20453,-0.44097 0.11249,-0.0485 0.82437,-1.07046 1.58194,-2.27101 l 1.37741,-2.18281 h -2.19468 -2.19468 l -0.64403,1.10454 c -2.8681,4.91886 -5.00966,7.73561 -5.00966,6.58908 0,-0.33927 2.36193,-3.8372 2.66405,-3.94535 0.1355,-0.0485 0.24637,-0.27726 0.24637,-0.50834 0,-0.23107 0.16651,-0.6081 0.37002,-0.83785 0.20352,-0.22974 0.6182,-0.86419 0.92153,-1.40989 l 0.55149,-0.99219 h -2.10883 -2.10882 l -0.66478,1.05308 c -0.36563,0.57919 -0.66478,1.11304 -0.66478,1.18633 0,0.0733 -0.65484,1.04593 -1.45521,2.1614 -0.80036,1.11548 -1.45521,2.17052 -1.45521,2.34453 0,0.43191 -1.01673,1.32196 -1.24702,1.09166 -0.20421,-0.20421 0.86343,-2.30841 1.5458,-3.04661 0.74216,-0.80287 2.30157,-3.32192 2.69157,-4.34792 0.16984,-0.44679 0.0284,-0.47698 -1.85991,-0.39687 l -2.04372,0.0867 -2.58971,3.83646 c -2.45377,3.63505 -3.1116,4.41747 -3.1116,3.7009 0,-0.43861 0.85982,-1.93874 1.25677,-2.19269 0.1819,-0.11637 0.33073,-0.37434 0.33073,-0.57327 0,-0.19892 0.1047,-0.40136 0.23266,-0.44987 0.12796,-0.0485 0.77416,-0.97948 1.436,-2.06883 0.84254,-1.38677 1.10994,-2.04004 0.89182,-2.17876 -0.17133,-0.10897 -1.08543,-0.19732 -2.03131,-0.19633 l -1.71979,0.002 -1.23869,1.91238 c -2.44527,3.77519 -3.92149,5.88141 -4.1834,5.96871 -0.48733,0.16244 -0.27571,-0.52628 0.52729,-1.71611 0.43657,-0.64686 0.79375,-1.23666 0.79375,-1.31066 0,-0.074 0.35185,-0.57404 0.78188,-1.11121 0.6908,-0.86297 2.12854,-3.31928 2.12854,-3.63657 0,-0.0651 -0.93058,-0.11829 -2.06795,-0.11829 h -2.06794 l -0.59026,1.05023 c -0.32465,0.57763 -1.3586,2.18344 -2.29768,3.56847 -0.93908,1.38503 -1.70742,2.6318 -1.70742,2.77061 0,0.35096 -0.47781,0.61116 -0.77968,0.42459 -0.29718,-0.18366 0.36159,-1.40045 2.39348,-4.42095 0.81484,-1.21128 1.6227,-2.47021 1.79525,-2.79764 0.30476,-0.57827 0.2775,-0.59523 -0.95234,-0.5924 -2.11816,0.005 -3.16721,0.27191 -3.48429,0.88693 -0.78001,1.51289 -4.57209,7.04766 -4.82862,7.04766 -0.3987,0 -0.24872,-0.69759 0.29995,-1.39511 0.29104,-0.37 0.52917,-0.80278 0.52917,-0.96173 0,-0.15894 0.0934,-0.28899 0.20753,-0.28899 0.11415,0 0.43261,-0.38696 0.70768,-0.8599 0.27508,-0.47294 0.56864,-0.91942 0.65236,-0.99219 0.16476,-0.14318 0.43642,-0.57817 1.44584,-2.3151 l 0.6535,-1.12448 h -2.05703 c -2.09786,0 -2.50801,0.17876 -3.03525,1.32292 -0.31029,0.67334 -0.77501,1.39043 -2.08036,3.21007 -0.69123,0.96356 -1.26073,1.85586 -1.26557,1.9829 -0.0146,0.38201 -0.9789,1.42161 -1.31869,1.42161 -0.46297,0 -0.22944,-0.45314 1.93759,-3.75957 3.00944,-4.5918 2.96225,-4.17793 0.47634,-4.17793 h -2.10718 l -1.26294,2.05052 c -0.694623,1.12779 -1.596053,2.4646 -2.003173,2.9707 -0.40713,0.5061 -0.74024,1.01694 -0.74024,1.1352 0,0.32138 -1.12498,1.78108 -1.37267,1.78108 -0.6064,0 0.43957,-2.1049 1.90641,-3.83646 0.24655,-0.29104 0.6738,-0.94588 0.94946,-1.45521 0.27565,-0.50932 0.70954,-1.20998 0.964203,-1.55703 0.25466,-0.34705 0.46302,-0.734 0.46302,-0.8599 0,-0.12589 -0.928563,-0.2289 -2.063483,-0.2289 h -2.06347 l -0.64851,1.07482 c -0.35667,0.59115 -1.18428,1.83299 -1.83912,2.75965 -0.65485,0.92666 -1.51512,2.22892 -1.91172,2.89393 -0.6641,1.11354 -1.26328,1.56706 -1.26328,0.95616 0,-0.38945 1.48714,-2.8217 2.09993,-3.4345 0.30025,-0.30024 0.5459,-0.66978 0.5459,-0.82119 0,-0.26024 1.0033,-1.82142 1.3534,-2.10595 0.0895,-0.0728 0.24241,-0.38767 0.33974,-0.69981 0.17061,-0.54716 0.10072,-0.56801 -1.94872,-0.58146 -1.23556,-0.008 -2.12567,0.0957 -2.12567,0.24796 0,0.14404 -0.12043,0.4057 -0.26763,0.58146 -0.1472,0.17575 -0.80039,1.13008 -1.45153,2.12071 -0.65114,0.99064 -1.33852,1.95578 -1.5275,2.14476 -0.18897,0.18898 -0.63691,0.8965 -0.99541,1.57228 -0.57211,1.07844 -1.31418,1.64578 -1.31418,1.00475 0,-0.39521 0.79181,-1.82633 1.19612,-2.16187 0.21526,-0.17866 0.39138,-0.48884 0.39138,-0.6893 0,-0.20047 0.1229,-0.36448 0.27311,-0.36448 0.15021,0 0.35857,-0.20836 0.46302,-0.46302 0.26127,-0.63701 2.24411,-3.59335 2.57041,-3.83241 0.14594,-0.10691 -0.83599,-0.19621 -2.18206,-0.19844 -1.42646,-0.002 -2.4474,0.10423 -2.4474,0.25552 0,0.18797 -3.38713,5.43899 -4.92701,7.63828 -0.0357,0.051 -0.18741,0.0169 -0.33718,-0.0757 -0.33998,-0.21012 0.0866,-0.97508 2.70181,-4.84563 l 2.01122,-2.97656 h -2.3171 -2.3171 l -0.33486,0.92604 c -0.18417,0.50933 -0.44622,0.92604 -0.58232,0.92604 -0.1361,0 -0.24746,0.10666 -0.24746,0.23701 0,0.37863 -2.95606,4.79008 -3.20978,4.79008 -0.12639,0 -0.2298,0.23812 -0.2298,0.52916 0,0.29399 -0.17639,0.52917 -0.39687,0.52917 -0.53766,0 -0.49973,-0.58834 0.0873,-1.35338 0.26627,-0.34705 0.56019,-0.83935 0.65315,-1.09401 0.093,-0.25467 0.29182,-0.46303 0.44191,-0.46303 0.15009,0 0.27289,-0.16401 0.27289,-0.36447 0,-0.20047 0.191,-0.523 0.42444,-0.71673 0.23344,-0.19374 0.53081,-0.59527 0.66082,-0.8923 0.24209,-0.55305 0.53002,-1.03761 1.38807,-2.33596 l 0.48895,-0.73986 -2.20595,0.0773 -2.20595,0.0773 -0.79654,1.24957 c -0.4381,0.68726 -1.2728,1.98027 -1.85488,2.87335 -0.58209,0.89308 -1.1774,1.81403 -1.32292,2.04655 -0.14552,0.23252 -0.41341,0.58513 -0.59531,0.78357 -0.1819,0.19844 -0.33073,0.47136 -0.33073,0.60649 0,0.13512 -0.17859,0.24568 -0.39688,0.24568 -0.65841,0 -0.46436,-0.48512 1.05834,-2.64583 0.80036,-1.13572 1.45521,-2.18573 1.45521,-2.33334 0,-0.14762 0.0944,-0.30808 0.2097,-0.35659 0.2919,-0.12276 1.3778,-1.93725 1.3778,-2.30224 0,-0.19572 -0.67238,-0.2995 -1.9404,-0.2995 h -1.9404 l -0.92813,1.38906 c -0.51047,0.76399 -1.67928,2.54993 -2.59735,3.96875 -1.49341,2.30801 -2.38331,3.15552 -2.38331,2.2698 z m 26.08822,-14.22765 c 4.85181,-4.85558 5.9645,-6.09746 5.55831,-6.20368 -0.38884,-0.10168 -1.92416,1.28419 -6.55218,5.91443 -3.32439,3.32597 -6.04435,6.11763 -6.04435,6.20368 0,0.086 0.21871,0.15644 0.48603,0.15644 0.28127,0 3.04159,-2.55754 6.55219,-6.07087 z m 2.31267,0.0216 c 4.77524,-4.78586 5.93999,-6.08605 5.57686,-6.2254 -0.3495,-0.13411 -1.64022,1.0004 -5.41122,4.75637 -2.72373,2.71287 -5.05647,5.01117 -5.18386,5.10733 -0.1274,0.0962 -0.70227,0.67797 -1.27751,1.2929 -1.01262,1.0825 -1.02512,1.11806 -0.393,1.11806 0.49909,0 2.07471,-1.42499 6.68873,-6.04926 z m 0.009,2.27895 c 2.11536,-2.07368 4.86316,-4.72282 6.10622,-5.88698 1.243063,-1.16417 2.260223,-2.21388 2.260363,-2.33268 1.4e-4,-0.11881 -0.30072,-0.17834 -0.66856,-0.13229 -0.46237,0.0579 -2.504123,1.91518 -6.614593,6.01702 -3.27017,3.26332 -5.94577,5.97199 -5.94577,6.01927 0,0.0473 0.22865,0.086 0.50811,0.086 0.2974,0 2.10316,-1.56361 4.35423,-3.77031 z m 3.44093,-0.87726 c 2.97629,-2.96751 4.661323,-4.84139 4.661323,-5.18374 0,-0.65815 -2.373783,1.39903 -7.451733,6.45787 -3.11229,3.10057 -3.3249,3.37343 -2.62854,3.37343 0.62813,0 1.55442,-0.79443 5.41895,-4.64756 z m 1.31781,0.97968 c 2.592403,-2.59736 3.632743,-3.81361 3.564493,-4.16718 -0.0745,-0.38577 -1.05808,0.44693 -4.325873,3.66213 -3.57315,3.51566 -4.1263,4.16233 -3.56449,4.16719 0.50582,0.004 1.54134,-0.87227 4.32587,-3.66214 z m 1.03549,1.2546 c 1.563733,-1.61517 2.309853,-2.58039 2.256073,-2.91859 -0.0622,-0.39113 -0.73697,0.15417 -2.986253,2.41328 -2.47605,2.48686 -2.80978,2.91859 -2.25607,2.91859 0.47179,0 1.28998,-0.6612 2.98625,-2.41328 z m 1.198313,1.06611 c 0.81884,-0.78547 1.36861,-1.52958 1.3193,-1.78566 -0.12171,-0.63201 -0.30339,-0.51472 -2.176463,1.40502 -1.38806,1.42265 -1.58521,1.72777 -1.11624,1.72754 0.32429,-1.5e-4 1.17411,-0.58018 1.973403,-1.3469 z m 1.32654,0.61957 c 0.11128,-0.78351 -0.24146,-0.75296 -1.03061,0.0893 l -0.641433,0.68456 0.793753,-0.0892 c 0.58774,-0.0661 0.81569,-0.24376 0.87829,-0.68457 z m 10.28533,-5.42396 -0.0511,-6.15156 -4.36563,-0.0242 c -2.40109,-0.0133 -4.57398,0.0245 -4.82864,0.084 -0.42437,0.0992 -0.46302,0.61474 -0.46302,6.17579 v 6.06758 h 4.87976 4.87977 z m 7.32518,-0.26438 c 4.63037,-4.60324 5.66329,-5.75489 5.16158,-5.75489 -0.79289,0 -12.1722,11.25251 -11.95409,11.8209 0.19273,0.50226 0.122,0.56542 6.79251,-6.06601 z m 1.93084,0.33053 c 4.64285,-4.61961 5.97479,-6.08542 5.5297,-6.08542 -0.41023,0 -2.43237,1.82773 -6.73274,6.08542 -4.83985,4.79182 -6.01531,6.08541 -5.52969,6.08541 0.45075,0 2.26263,-1.63767 6.73273,-6.08541 z m 2.64592,0 c 5.46863,-5.45168 6.02546,-6.08542 5.34688,-6.08542 -0.6331,0 -1.76803,0.99859 -6.91204,6.08166 -5.69134,5.62392 -6.09378,6.08194 -5.34688,6.08542 0.70205,0.003 1.60617,-0.79224 6.91204,-6.08166 z m 1.40637,0.93885 c 3.75932,-3.74823 5.02911,-5.17576 5.02911,-5.65387 0,-0.52125 -1.05264,0.40475 -5.68854,5.00412 -3.1287,3.10404 -5.68854,5.68596 -5.68854,5.73759 0,0.0516 0.29674,0.0562 0.65943,0.0102 0.44443,-0.0564 2.29908,-1.71853 5.68854,-5.09799 z m 1.04491,1.23595 c 3.44506,-3.38143 4.5744,-4.82063 3.78275,-4.82063 -0.11079,0 -2.16326,1.96453 -4.56105,4.36562 -3.32467,3.32926 -4.22267,4.36562 -3.78275,4.36562 0.38703,0 1.88796,-1.28688 4.56105,-3.91061 z m 1.15334,1.08062 c 1.97163,-1.95499 2.83003,-2.98809 2.77632,-3.34133 -0.0606,-0.3984 -0.79366,0.19008 -3.3189,2.66428 -1.78263,1.74659 -3.24114,3.2502 -3.24114,3.34134 0,0.0911 0.20917,0.1657 0.46482,0.1657 0.25565,0 1.74915,-1.27349 3.3189,-2.82999 z m 1.17009,1.18399 c 1.4436,-1.43076 2.09947,-2.59055 1.46233,-2.58587 -0.10914,7.9e-4 -1.14547,0.9533 -2.30296,2.11667 -1.82838,1.83766 -2.02026,2.1152 -1.46233,2.1152 0.43309,0 1.18298,-0.53596 2.30296,-1.646 z m 1.38291,1.26513 c 0.17385,-0.20948 0.27773,-0.69308 0.23083,-1.07467 l -0.0853,-0.6938 -1.04589,1.07467 -1.04588,1.07467 h 0.81505 c 0.44828,0 0.9573,-0.17139 1.13115,-0.38087 z M 94.267757,203.87135 c 0,-0.053 -0.22333,-0.0964 -0.49629,-0.0964 -0.75825,0 -9.93247,9.34666 -10.04281,10.23157 -0.0706,0.56587 0.96783,-0.36138 5.22552,-4.6663 2.92247,-2.95489 5.31358,-5.41588 5.31358,-5.46889 z m 27.490743,-0.0529 c -0.43415,-0.0679 -1.55877,0.89778 -4.77615,4.10104 -4.38063,4.36142 -4.86535,4.93595 -4.56897,5.41551 0.10472,0.16944 2.18921,-1.71833 5.04571,-4.56952 4.00194,-3.99451 4.76632,-4.87403 4.29941,-4.94703 z m -33.576163,4.05184 c 3.45433,-3.44613 3.99673,-4.09128 3.43958,-4.09106 -0.49802,1.9e-4 -1.56036,0.90387 -4.29948,3.65731 -3.14499,3.16145 -4.20826,4.56265 -3.43958,4.53277 0.10914,-0.004 2.04391,-1.8488 4.29948,-4.09902 z M 116.465,207.47911 c 3.01418,-3.03539 3.56525,-3.70417 3.0522,-3.70417 -0.45241,0 -1.52753,0.92069 -3.87578,3.31905 -3.06204,3.12738 -3.80012,4.08929 -3.13775,4.08929 0.15568,0 1.93828,-1.66688 3.96133,-3.70417 z m -29.630023,-0.59528 c 2.70833,-2.76682 2.865,-2.98273 2.22336,-3.06409 -0.98391,-0.12476 -5.37392,4.21102 -5.37392,5.30753 0,0.40321 0.0533,0.73312 0.11846,0.73312 0.0652,0 1.42959,-1.33945 3.0321,-2.97656 z m 28.421553,-0.4302 c 2.022,-2.04571 2.48763,-2.64949 2.14474,-2.78106 -0.62313,-0.23912 -4.87726,3.92977 -4.87726,4.77954 0,0.33799 0.0337,0.61453 0.0749,0.61453 0.0412,0 1.23712,-1.17585 2.65761,-2.61301 z m -28.591873,-2.62324 c -0.66766,-0.10651 -2.98024,2.15083 -2.98024,2.90905 0,0.49898 0.2723,0.3228 1.73107,-1.12003 1.33993,-1.32528 1.62219,-1.72952 1.24917,-1.78902 z m 28.222833,-0.0117 c -0.78015,-0.12069 -2.36348,1.42964 -2.36348,2.31422 0,0.61883 0.10533,0.56289 1.46789,-0.77951 1.30008,-1.28084 1.40247,-1.45629 0.89559,-1.5347 z M 84.764037,203.6904 c -0.43501,-0.43502 -1.07962,0.033 -1.07962,0.78382 v 0.71588 l 0.66497,-0.6247 c 0.41801,-0.3927 0.572,-0.71766 0.41465,-0.875 z m 28.553723,0.18853 c 0,-0.0572 -0.24516,-0.10399 -0.54479,-0.10399 -0.29963,0 -0.47441,0.11387 -0.3884,0.25303 0.14119,0.22844 0.93319,0.10195 0.93319,-0.14904 z m -23.040803,-3.05512 2.08346,-2.20824 -1.61008,-0.0801 -1.61009,-0.0801 -2.1326,2.13712 c -1.36807,1.37097 -2.02346,2.20592 -1.82815,2.32903 0.16745,0.10555 0.9141,0.17359 1.65922,0.1512 1.33883,-0.0402 1.3793,-0.0667 3.43824,-2.24896 z m 7.25353,-0.0445 2.07211,-2.16373 -1.86231,-0.0775 c -1.58524,-0.066 -1.94273,0.003 -2.40284,0.46302 -0.29729,0.29729 -0.54053,0.61313 -0.54053,0.70187 0,0.0887 -0.60819,0.8268 -1.35154,1.64014 -1.51404,1.6566 -1.43272,1.83893 0.75262,1.68736 1.19294,-0.0827 1.37125,-0.20318 3.33249,-2.25115 z m 5.791903,1.44146 c 0.39613,-0.38213 0.72356,-0.80975 0.7276,-0.95027 0.004,-0.14052 0.56842,-0.82513 1.25417,-1.52136 l 1.24683,-1.26585 -1.84214,0.0285 -1.84214,0.0285 -1.95925,2.11333 c -1.305343,1.40798 -1.854333,2.17818 -1.644873,2.30763 0.17291,0.10687 0.995053,0.1403 1.826973,0.0743 1.1737,-0.0931 1.67394,-0.27566 2.23283,-0.81479 z m 13.7856,0.12638 c 0.26562,-0.30612 1.20029,-1.30071 2.07704,-2.21022 l 1.59409,-1.65364 h -1.96546 -1.96547 l -2.0298,2.11993 c -1.11639,1.16596 -2.0298,2.16971 -2.0298,2.23056 0,0.2081 1.18989,0.2943 2.51354,0.18209 0.91738,-0.0778 1.47096,-0.28276 1.80586,-0.66872 z m 8.37871,-1.64214 2.24707,-2.22172 h -1.76546 -1.76546 l -2.12824,2.17153 c -1.18892,1.21311 -2.00733,2.24626 -1.8543,2.34084 0.15067,0.0931 0.89165,0.1157 1.64663,0.0502 1.3115,-0.1138 1.47286,-0.21815 3.61976,-2.34084 z m 2.23624,0.15953 c 2.06404,-2.08763 2.27285,-2.38125 1.69339,-2.38125 -0.47794,0 -1.22899,0.58369 -2.71226,2.10789 -1.77337,1.82231 -2.25133,2.65461 -1.52445,2.65461 0.10392,0 1.24842,-1.07157 2.54332,-2.38125 z m 3.90593,0.96405 c 0.79816,-0.89209 0.98301,-1.30584 0.99219,-2.22083 0.0107,-1.06745 -0.0277,-1.12447 -0.75735,-1.12447 -0.61349,0 -1.19837,0.43905 -2.89757,2.17513 -1.17091,1.19633 -2.01483,2.24566 -1.87536,2.33186 0.13946,0.0862 0.99688,0.10675 1.90538,0.0457 1.54506,-0.10385 1.7152,-0.18188 2.63271,-1.20738 z m -49.250843,0.16042 c 0.49241,-0.5457 1.42081,-1.55773 2.06309,-2.24895 l 1.1678,-1.25677 h -1.86939 c -2.44862,0 -2.70094,0.24893 -2.70094,2.66473 0,1.00825 0.0999,1.83318 0.22207,1.83318 0.12214,0 0.62495,-0.44648 1.11737,-0.99219 z m 3.3923,-1.25677 c 1.90448,-1.94999 2.11138,-2.24895 1.55637,-2.24895 -0.4513,0 -1.23891,0.61533 -2.67035,2.08628 -1.11664,1.14745 -2.03026,2.15948 -2.03026,2.24896 0,0.0895 0.21325,0.16267 0.47388,0.16267 0.26064,0 1.4623,-1.01203 2.67036,-2.24896 z m 7.14013,0.0603 c 1.75395,-1.95808 1.89007,-2.18593 1.35385,-2.26612 -0.43567,-0.0652 -1.01946,0.32656 -2.16867,1.4552 -0.86489,0.84941 -1.80965,1.8718 -2.09947,2.27198 l -0.52695,0.7276 0.74562,-0.006 c 0.59609,-0.005 1.1367,-0.44244 2.69562,-2.18281 z m 6.91355,-0.0603 c 1.983833,-1.99419 2.161363,-2.24895 1.567123,-2.24895 -0.63128,0 -2.133273,1.35633 -4.170333,3.76591 -0.56513,0.66848 -0.5761,0.732 -0.12645,0.732 0.27081,0 1.49916,-1.01203 2.72966,-2.24896 z m 7.143753,0 c 2.1782,-2.18958 2.21607,-2.24895 1.43424,-2.24895 -0.63321,0 -1.10949,0.32173 -2.25211,1.52135 -0.79699,0.83674 -1.65614,1.84878 -1.9092,2.24896 -0.43914,0.69441 -0.43847,0.7276 0.0148,0.7276 0.26123,0 1.48173,-1.01203 2.71223,-2.24896 z m 4.48499,0.0661 2.11834,-2.18281 -1.62826,-0.08 -1.62825,-0.08 -2.07029,2.05814 c -1.13866,1.13198 -2.07028,2.15023 -2.07028,2.26279 0,0.11255 0.71109,0.20464 1.5802,0.20464 h 1.5802 z m 2.2396,-0.0661 c 1.77914,-1.84438 2.06404,-2.24895 1.5837,-2.24895 -0.37899,0 -1.22478,0.66141 -2.39648,1.87406 -2.12183,2.19599 -2.41458,2.62385 -1.79528,2.62385 0.24126,0 1.41489,-1.01203 2.60806,-2.24896 z m 7.18853,0 c 1.85722,-1.88671 2.11538,-2.24895 1.60277,-2.24895 -0.40134,0 -1.22477,0.61289 -2.39943,1.78593 -2.06142,2.05859 -2.50766,2.71198 -1.85215,2.71198 0.23926,0 1.43123,-1.01203 2.64881,-2.24896 z m 11.75146,1.6757 c 0,-0.3153 -0.0337,-0.52366 -0.0749,-0.46302 -0.0412,0.0606 -0.23434,0.3186 -0.42927,0.57326 -0.30336,0.39634 -0.29258,0.46302 0.0749,0.46302 0.26389,0 0.42927,-0.22085 0.42927,-0.57326 z m -6.34456,-6.88228 c -1.26352,-0.47233 -1.59294,-0.99632 -1.59294,-2.5338 0,-1.28562 0.0968,-1.53747 0.89959,-2.34024 1.27034,-1.27034 2.35114,-1.23691 3.81889,0.11811 1.22997,1.1355 1.42186,2.0949 0.69869,3.49336 l -0.40367,0.78061 h 5.58509 c 4.35062,0 5.56067,0.0731 5.47459,0.33073 -0.13506,0.40426 -13.43186,0.54313 -14.48024,0.15123 z m 3.05697,-1.52259 c 0.82819,-1.25149 0.70762,-1.85539 -0.56407,-2.82536 -1.0721,-0.81774 -1.93583,-0.71606 -2.91776,0.34345 -1.3349,1.44037 -0.26971,3.52254 1.80203,3.52254 0.8604,0 1.08197,-0.13726 1.6798,-1.04063 z m -62.737133,-2.98413 c -0.63055,-0.49599 -1.01925,-0.57399 -2.54922,-0.51153 -1.49376,0.061 -1.80523,0.002 -1.80523,-0.34081 0,-0.33884 0.35636,-0.41451 1.95198,-0.41451 1.4406,0 2.04118,-0.10748 2.29246,-0.41026 0.21985,-0.2649 0.67488,-0.38208 1.28435,-0.33073 0.75476,0.0636 0.99426,0.2237 1.19538,0.79912 0.19891,0.56909 0.14984,0.83194 -0.23462,1.25677 -0.6265,0.69227 -1.21065,0.67912 -2.1351,-0.048 z m 10.60175,0.0145 c -0.5586,-0.43939 -0.60297,-0.59716 -0.36218,-1.28791 0.22917,-0.65738 0.41749,-0.78716 1.14218,-0.78716 0.47727,0 1.01598,0.17859 1.19714,0.39687 0.23831,0.28715 0.86904,0.39688 2.28135,0.39688 1.61763,0 1.95198,0.0729 1.95198,0.42579 0,0.36211 -0.29458,0.41092 -1.96966,0.32633 -1.64938,-0.0833 -1.98795,-0.0296 -2.08211,0.33051 -0.17422,0.66624 -1.4187,0.78079 -2.1587,0.1987 z m -9.59707,-6.10997 c 0.0614,-0.1819 0.33918,-0.34287 0.61737,-0.3577 2.12271,-0.11319 1.961,-0.006 1.961,-1.29595 0,-0.94938 0.0938,-1.19496 0.46302,-1.21203 0.25467,-0.0118 1.24954,-0.0749 2.21083,-0.14024 0.9613,-0.0654 2.06263,8e-4 2.4474,0.14715 0.59414,0.22589 0.69959,0.4242 0.69959,1.31565 0,1.04245 0.008,1.05023 1.10391,1.13103 0.60716,0.0448 1.15286,0.23019 1.21268,0.41209 0.0847,0.25742 -1.10324,0.33073 -5.3593,0.33073 -4.25756,0 -5.44336,-0.0732 -5.3565,-0.33073 z m 7.02691,-0.42771 c 0.52554,-0.0303 0.60035,-0.15689 0.52916,-0.89521 l -0.0829,-0.85989 h -2.11666 -2.11667 l -0.0812,0.83759 c -0.10074,1.03857 0.26521,1.12537 3.86832,0.91751 z m 26.895163,-12.5369 c -0.0688,-0.1819 -0.15437,-2.53339 -0.19013,-5.22552 l -0.065,-4.8948 -6.482293,-0.0244 -6.48229,-0.0244 -0.0761,-2.58239 c -0.0494,-1.67641 0.0316,-2.71213 0.23083,-2.95217 0.22062,-0.26584 0.96715,-0.36978 2.65574,-0.36978 h 2.34886 v -15.4731 -15.47308 l 0.59531,-0.14453 c 0.32742,-0.0795 6.310313,-0.11153 13.295313,-0.0712 l 12.7,0.0734 -0.0676,15.54427 -0.0676,15.54427 h 2.53976 c 2.32809,0 2.55144,0.0447 2.67994,0.53604 0.13858,0.52993 0.14981,0.53035 0.98628,0.0368 0.76442,-0.45102 1.51479,-0.50411 7.77255,-0.54987 6.17674,-0.0452 6.92646,-0.005 6.92646,0.37015 0,0.34159 -0.28637,0.41155 -1.52136,0.37164 -2.58776,-0.0836 -8.82445,0.056 -9.21616,0.20628 -0.30181,0.11581 -0.27406,0.27961 0.14774,0.87198 0.57004,0.80054 0.54124,1.35761 -0.13932,2.69515 -0.58337,1.14652 -0.45927,1.0546 -1.74024,1.28884 -0.73863,0.13507 -1.44896,0.0851 -2.11093,-0.14843 -0.73095,-0.2579 -1.02464,-0.27117 -1.09848,-0.0496 -0.0728,0.21826 -1.84349,0.28148 -6.36624,0.22728 l -6.26544,-0.0751 v 4.99401 c 0,3.53145 -0.093,5.08699 -0.3175,5.31151 -0.4621,0.4621 -10.49703,0.44966 -10.67213,-0.0132 z m 10.09105,-0.53458 c 0.28805,-0.28805 0.32233,-9.02602 0.0368,-9.3873 -0.19164,-0.2425 -1.52317,-0.33073 -4.99146,-0.33073 h -4.73011 v 1.79917 c 0,1.04657 0.13281,1.93198 0.3175,2.11667 0.24694,0.24694 0.24694,0.38805 0,0.635 -0.20106,0.20106 -0.3175,1.21277 -0.3175,2.75872 0,2.07428 0.0667,2.45408 0.44379,2.52677 0.82802,0.15962 9.06854,0.0541 9.24096,-0.1183 z m 13.06942,-12.49615 v -2.24896 l -3.10885,-0.007 c -1.70987,-0.004 -6.97839,-0.009 -11.70782,-0.011 -4.72942,-0.002 -10.444423,-0.005 -12.700003,-0.006 -2.25557,-0.001 -4.9073,-0.0176 -5.89274,-0.0361 -0.98543,-0.0186 -1.90544,0.08 -2.04446,0.21901 -0.19986,0.19986 -0.41149,3.21415 -0.29073,4.14103 0.0142,0.10914 8.06257,0.19843 17.885223,0.19843 h 17.85938 v -2.24895 z m 3.90261,2.08219 c 0.32742,-0.0877 0.59531,-0.32424 0.59531,-0.52555 0,-0.20131 0.10616,-0.36602 0.2359,-0.36602 0.48621,0 0.57415,-1.34597 0.13636,-2.08709 -0.93786,-1.58768 -3.14094,-1.58279 -3.96398,0.009 -0.59967,1.15962 -0.46259,1.8798 0.48371,2.54131 0.87121,0.60902 1.46278,0.70992 2.5127,0.42855 z m -9.19428,-20.33847 v -15.21354 l -6.81302,-0.01 c -12.994223,-0.0183 -18.165763,0.0294 -18.305143,0.16873 -0.077,0.077 -0.17061,6.91885 -0.20793,15.20401 l -0.0678,15.06394 h 12.696973 12.69697 z m -42.649433,21.1005 -1.22075,-2.57969 1.1832,-0.13229 1.1832,-0.13229 -0.018,-7.87136 c -0.0156,-6.82902 0.0346,-7.87135 0.37897,-7.87135 0.34406,0 0.39696,1.05766 0.39696,7.9375 v 7.9375 h 0.92604 c 1.05227,0 1.2389,0.53867 0.47795,1.37951 -0.48743,0.5386 -1.10885,2.0302 -1.32672,3.18455 -0.0755,0.40018 -0.27746,0.72761 -0.44873,0.72761 -0.17126,0 -0.86073,-1.16086 -1.53214,-2.57969 z m 73.741073,-12.14011 c 0.3686,0.14144 -0.41622,-0.15972 0,0 z M 78.112467,132.6682 c -0.009,-0.10914 -0.0384,-3.59172 -0.0662,-7.73906 l -0.0504,-7.54063 -1.24521,-0.0802 -1.24521,-0.0802 0.53866,-1.11045 c 0.29626,-0.61075 0.64984,-1.28905 0.78574,-1.50733 0.13589,-0.21828 0.51337,-0.96227 0.83884,-1.6533 0.67623,-1.43574 0.98864,-1.59241 0.98864,-0.49576 0,0.41874 0.1786,0.90957 0.39688,1.09073 0.21828,0.18115 0.39687,0.46457 0.39687,0.62981 0,0.16524 0.29266,0.85019 0.65035,1.52212 0.35769,0.67192 0.57597,1.29605 0.48507,1.38695 -0.0909,0.0909 -0.56215,0.16528 -1.04722,0.16528 h -0.88195 v 7.80521 c 0,5.02708 -0.0942,7.80521 -0.26458,7.80521 -0.14552,0 -0.27165,-0.0893 -0.28028,-0.19844 z"
         id="path854"
         sodipodi:nodetypes="sssssssscssscsccccccccccsssssssscssscccssssscssscccssssscssssssscccsssssscccsssssssscsssssssccssssssscsssssscsssssssscssssssscssssssssscsssssscscssssssssssscsscscccssssssssssssscccsssssssscsscsssssssssssssssssssssssssssssssssscsssssssssssssccssccscsccccsssssssssssscsssssssssssssssssssssssssscccssssssssssssssssscsssssssssssssssssssssssssssscssssssccccsssccccsssssscssscccssssssscccssssccccsssscssssssssssssssscssssssssssccssccccssssssssssssccccsssccsssssssssssssssssssscsssssssssssssssssssssssssssscsssccsscsccscccccccscccssscccsccccssssssssssscscssccssscssssssscccsscsssccccssscscccccscccccccccssscssssscsscccccssssssssscsscc" />
      <text
         xml:space="preserve"
         style="font-size:4.40201px;line-height:1.25;font-family:'JetBrains Mono';-inkscape-font-specification:'JetBrains Mono, Normal';font-variant-ligatures:none;stroke-width:0.183417"
         x="134.20024"
         y="153.87947"
         id="text1374"><tspan
           sodipodi:role="line"
           id="tspan1372"
           style="stroke-width:0.183417"
           x="134.20024"
           y="153.87947">POSICIÓN DE REPOSO</tspan></text>
      <text
         xml:space="preserve"
         style="font-size:5.05049px;line-height:1.25;font-family:'JetBrains Mono';-inkscape-font-specification:'JetBrains Mono, Normal';font-variant-ligatures:none;stroke-width:0.210437"
         x="61.049358"
         y="116.87137"
         id="text1374-7"><tspan
           sodipodi:role="line"
           id="tspan1372-5"
           style="stroke-width:0.210437"
           x="61.049358"
           y="116.87137">SUBE</tspan></text>
      <text
         xml:space="preserve"
         style="font-size:5.05049px;line-height:1.25;font-family:'JetBrains Mono';-inkscape-font-specification:'JetBrains Mono, Normal';font-variant-ligatures:none;stroke-width:0.210437"
         x="61.471409"
         y="163.49591"
         id="text1374-7-6"><tspan
           sodipodi:role="line"
           id="tspan1372-5-4"
           style="stroke-width:0.210437"
           x="61.471409"
           y="163.49591">BAJA</tspan></text>
      <text
         xml:space="preserve"
         style="font-size:5.05049px;line-height:1.25;font-family:'JetBrains Mono';-inkscape-font-specification:'JetBrains Mono, Normal';font-variant-ligatures:none;stroke-width:0.210437"
         x="65.683586"
         y="179.34435"
         id="text1374-7-6-6"><tspan
           sodipodi:role="line"
           id="tspan1372-5-4-3"
           style="stroke-width:0.210437"
           x="65.683586"
           y="179.34435">START</tspan></text>
      <text
         xml:space="preserve"
         style="font-size:5.63457px;line-height:1.25;font-family:'JetBrains Mono';-inkscape-font-specification:'JetBrains Mono, Normal';font-variant-ligatures:none;stroke-width:0.234774"
         x="118.26586"
         y="171.36414"
         id="text1374-2"><tspan
           sodipodi:role="line"
           id="tspan1372-9"
           style="stroke-width:0.234774"
           x="118.26586"
           y="171.36414">MARCADOR</tspan></text>
      <text
         xml:space="preserve"
         style="font-size:5.63457px;line-height:1.25;font-family:'JetBrains Mono';-inkscape-font-specification:'JetBrains Mono, Normal';font-variant-ligatures:none;stroke-width:0.234774"
         x="132.97417"
         y="192.28175"
         id="text1374-2-7"><tspan
           sodipodi:role="line"
           id="tspan1372-9-9"
           style="stroke-width:0.234774"
           x="132.97417"
           y="192.28175">POSICIÓN ABAJO</tspan></text>
      <g
         id="g8125"
         transform="translate(0,1.5875)">
        <rect
           style="fill:#808080;fill-opacity:1;stroke:#333333;stroke-width:0.264583;stroke-linecap:round;stroke-miterlimit:4;stroke-dasharray:none"
           id="rect7498"
           width="8.1636124"
           height="18.918848"
           x="102.69305"
           y="132.0432" />
        <rect
           style="fill:#808080;fill-opacity:1;stroke:#333333;stroke-width:0.264583;stroke-linecap:round;stroke-miterlimit:4;stroke-dasharray:none"
           id="rect7728"
           width="12.051046"
           height="2.3324606"
           x="100.74934"
           y="132.0432" />
        <rect
           style="fill:#cccccc;fill-opacity:1;stroke:#333333;stroke-width:0.264583;stroke-linecap:round;stroke-miterlimit:4;stroke-dasharray:none"
           id="rect8021"
           width="2.5655758"
           height="9.7125368"
           x="105.41768"
           y="150.40688" />
        <rect
           style="display:inline;fill:#808080;fill-opacity:1;stroke:#333333;stroke-width:0.264583;stroke-linecap:round;stroke-miterlimit:4;stroke-dasharray:none"
           id="rect7728-7"
           width="12.051046"
           height="2.3324606"
           x="100.74934"
           y="148.62958" />
      </g>
      <ellipse
         style="fill:#ffcc00;fill-opacity:1;stroke:#333333;stroke-width:0.277034;stroke-linecap:round;stroke-miterlimit:4;stroke-dasharray:none"
         id="path8149"
         cx="127.60504"
         cy="159.02846"
         rx="2.4234209"
         ry="2.3586302" />
      <ellipse
         style="display:inline;fill:#ffcc00;fill-opacity:1;stroke:#333333;stroke-width:0.277034;stroke-linecap:round;stroke-miterlimit:4;stroke-dasharray:none"
         id="path8149-6"
         cx="127.63744"
         cy="192.81676"
         rx="2.4234209"
         ry="2.3586302" />
    </g>
  </g>
</svg>
