<?xml version="1.0" encoding="UTF-8" standalone="no"?>
<svg
   width="1000"
   height="940"
   viewBox="0 0 1000 940"
   version="1.1"
   id="svg14"
   sodipodi:docname="marcador_de_cajas.svg"
   inkscape:version="1.1.1 (3bf5ae0d25, 2021-09-20)"
   xmlns:inkscape="http://www.inkscape.org/namespaces/inkscape"
   xmlns:sodipodi="http://sodipodi.sourceforge.net/DTD/sodipodi-0.dtd"
   xmlns="http://www.w3.org/2000/svg"
   xmlns:svg="http://www.w3.org/2000/svg">
  <defs
     id="defs18" />
  <sodipodi:namedview
     id="namedview16"
     pagecolor="#ffffff"
     bordercolor="#666666"
     borderopacity="1.0"
     inkscape:pageshadow="2"
     inkscape:pageopacity="0.0"
     inkscape:pagecheckerboard="0"
     showgrid="false"
     inkscape:zoom="0.60957447"
     inkscape:cx="550.38394"
     inkscape:cy="707.87086"
     inkscape:window-width="1280"
     inkscape:window-height="738"
     inkscape:window-x="0"
     inkscape:window-y="0"
     inkscape:window-maximized="1"
     inkscape:current-layer="svg14" />
  <path
     d="M 139.224 2.701 C 138.134 4.240, 132.714 14.555, 127.180 25.622 L 117.118 45.744 121.699 46.372 C 124.218 46.717, 128.916 47, 132.140 47 L 138 47 138 81.337 C 138 100.223, 138.298 129.266, 138.662 145.879 C 139.250 172.708, 139.502 176.050, 140.912 175.783 C 143.365 175.317, 143.725 166.504, 143.869 103.292 L 144 46.084 151.750 45.792 L 159.500 45.500 159.405 42.500 C 159.353 40.850, 157.485 35.450, 155.254 30.500 C 153.024 25.550, 150.710 20.375, 150.113 19 C 149.517 17.625, 148.080 15.324, 146.922 13.888 C 145.699 12.371, 144.539 9.050, 144.158 5.970 C 143.388 -0.242, 141.972 -1.180, 139.224 2.701 M 5.206 12.048 C 2.535 13.119, -0.270 19.070, 0.659 21.694 C 1.774 24.845, 5.176 27.904, 8.897 29.101 C 13.663 30.635, 15 31.801, 15 34.422 C 15 37.502, 13.128 39, 9.279 39 C 6.706 39, 5.700 38.436, 4.818 36.500 C 3.217 32.986, -0.240 33.099, 0.184 36.651 C 0.948 43.059, 11.779 45.676, 16.791 40.664 C 22.038 35.416, 19.181 27.498, 11.103 24.899 C 6.499 23.417, 5 22.202, 5 19.949 C 5 17.767, 7.583 15, 9.619 15 C 10.431 15, 12.138 16.125, 13.412 17.500 C 15.947 20.235, 19 20.826, 19 18.582 C 19 12.853, 11.752 9.420, 5.206 12.048 M 26.032 25.250 C 26.067 39.770, 26.611 41.454, 31.744 42.926 C 35.968 44.138, 39.732 43.156, 42.023 40.244 C 43.760 38.036, 44 36.167, 44 24.865 C 44 12.667, 43.896 12, 42 12 C 40.130 12, 39.994 12.700, 39.900 22.750 C 39.773 36.504, 39.254 38.404, 35.510 38.836 C 30.808 39.378, 30 37.175, 30 23.809 C 30 12.667, 29.887 12, 28 12 C 26.099 12, 26.002 12.656, 26.032 25.250 M 51 27.500 L 51 43 58.045 43 C 64.192 43, 65.404 42.687, 67.545 40.545 C 70.690 37.401, 70.893 31.579, 67.967 28.465 C 66.159 26.541, 66.104 26.159, 67.467 25.028 C 69.731 23.148, 69.447 16.447, 67 14 C 65.381 12.381, 63.667 12, 58 12 L 51 12 51 27.500 M 77 27.500 L 77 43 86 43 C 94.333 43, 95 42.852, 95 41 C 95 39.190, 94.333 39, 88 39 L 81 39 81 34.048 L 81 29.095 87.240 28.798 C 92.246 28.559, 93.546 28.154, 93.813 26.750 C 94.103 25.227, 93.294 25, 87.573 25 L 81 25 81 20.500 L 81 16 88 16 C 94.333 16, 95 15.810, 95 14 C 95 12.148, 94.333 12, 86 12 L 77 12 77 27.500 M 56 20.500 C 56 24.809, 56.124 25, 58.929 25 C 62.200 25, 65 22.753, 65 20.129 C 65 17.488, 62.946 16, 59.300 16 C 56.056 16, 56 16.076, 56 20.500 M 56 34 L 56 39 59.477 39 C 62.082 39, 63.365 38.373, 64.592 36.500 C 66.109 34.184, 66.109 33.816, 64.592 31.500 C 63.365 29.627, 62.082 29, 59.477 29 L 56 29 56 34 M 270 108.895 L 267.500 109.590 267.246 238.795 L 266.992 368 250.246 368.006 C 232.222 368.012, 226.648 368.921, 224.928 372.135 C 223.225 375.317, 222.670 387.227, 223.474 403.313 L 224.208 418 277.995 418 L 331.783 418 332.382 440.250 C 333.357 476.456, 334.509 500.415, 335.340 501.750 C 335.768 502.438, 337.471 503, 339.125 503 C 340.778 503, 342.998 503.464, 344.057 504.030 C 346.588 505.385, 411.330 505.429, 413.855 504.078 C 414.860 503.540, 417.539 502.990, 419.808 502.856 C 422.407 502.703, 424.185 502.037, 424.612 501.056 C 425.475 499.074, 426.819 461.350, 426.922 436.242 L 427 416.985 477.300 417.038 C 504.965 417.067, 528.478 416.766, 529.550 416.368 C 530.623 415.971, 531.779 415.232, 532.119 414.725 C 532.478 414.192, 536.443 414.733, 541.545 416.011 C 549.567 418.021, 551.027 418.109, 557.926 417.002 C 562.092 416.334, 566.326 415.348, 567.335 414.813 C 568.344 414.277, 571.006 410.011, 573.251 405.332 C 578.432 394.536, 578.621 390.129, 574.198 383.329 C 569.042 375.403, 567.394 375.716, 617.025 375.190 C 653.694 374.801, 660.350 374.507, 661.634 373.223 C 662.979 371.878, 662.969 371.540, 661.537 370.107 C 660.119 368.689, 654.739 368.465, 615.715 368.204 C 562.595 367.849, 547.055 368.716, 539.948 372.432 C 533.803 375.645, 532.380 375.651, 531.580 372.465 C 531.219 371.023, 529.850 369.513, 528.407 368.965 C 527.012 368.434, 517.423 368, 507.099 368 L 488.329 368 488.803 238 L 489.276 108 380.888 108.100 C 321.275 108.155, 271.375 108.512, 270 108.895 M 277.365 115.715 L 274.231 116.110 273.635 152.305 C 273.307 172.212, 272.774 228.887, 272.451 278.250 L 271.863 368 318.431 368 L 365 368 365 371.500 L 365 375 300.750 375.014 C 265.413 375.021, 235.529 375.288, 234.342 375.606 C 231.387 376.399, 230.989 378.322, 230.311 395.089 C 229.808 407.529, 229.943 409.764, 231.226 410.257 C 232.054 410.574, 262.492 411.164, 298.866 411.566 C 361.918 412.264, 365 412.383, 365 414.121 C 365 415.783, 363.785 415.968, 351.250 416.222 L 337.500 416.500 337.195 422.425 C 336.770 430.681, 338.567 447.333, 340.158 449.881 C 341.259 451.644, 341.253 452.365, 340.124 454.172 C 336.998 459.179, 336.561 493.658, 339.572 497.762 C 340.747 499.363, 343.789 499.489, 378.277 499.363 C 403.213 499.273, 416.390 498.862, 417.752 498.133 C 419.579 497.155, 419.874 495.698, 420.524 484.426 C 421.567 466.342, 420.674 420.274, 419.253 418.853 C 418.337 417.937, 403.227 416.376, 392.250 416.064 C 390.688 416.020, 390 415.388, 390 414 C 390 412.019, 390.667 412, 458.500 412 L 527 412 527 393.500 L 527 375 458.500 375 L 390 375 390 371.500 L 390 368 436.500 368 L 483 368 483 241.500 L 483 115 381.750 115.160 C 326.063 115.248, 279.089 115.498, 277.365 115.715 M 138.363 263.750 C 137.896 264.712, 137.376 294.156, 137.208 329.181 L 136.904 392.862 134.202 393.389 C 132.716 393.679, 128.463 394.212, 124.750 394.574 C 120.765 394.963, 118.004 395.697, 118.009 396.366 C 118.014 396.990, 121.863 405.364, 126.563 414.976 C 134.897 432.023, 139.110 439, 141.067 439 C 142.317 439, 144.161 434.635, 147.591 423.560 C 149.275 418.121, 152.033 412.125, 154.632 408.249 C 159.868 400.441, 160.388 398.912, 158.626 396.503 C 157.580 395.072, 155.640 394.508, 150.680 394.192 L 144.119 393.775 143.789 329.637 C 143.608 294.362, 143.083 264.712, 142.623 263.750 C 142.162 262.788, 141.207 262, 140.500 262 C 139.793 262, 138.831 262.788, 138.363 263.750 M 749.750 318.470 C 747.537 321.513, 747.556 322, 749.885 322 C 751.482 322, 755 318.242, 755 316.535 C 755 315.007, 751.267 316.383, 749.750 318.470 M 610 337.884 C 610 351.333, 610.094 352, 612 352 C 613.752 352, 614 351.333, 614 346.630 L 614 341.260 618.541 340.748 C 624.667 340.058, 627 337.783, 627 332.500 C 627 326.590, 624.598 324.697, 616.443 324.177 L 610 323.767 610 337.884 M 634.174 326.314 C 632.257 328.356, 632 329.751, 632 338.140 C 632 346.789, 632.210 347.848, 634.314 349.826 C 637.488 352.807, 642.407 352.684, 645.545 349.545 C 647.784 347.307, 648 346.308, 648 338.180 C 648 330.680, 647.672 328.853, 645.927 326.635 C 643.159 323.115, 637.329 322.956, 634.174 326.314 M 656.174 326.314 C 651.801 330.969, 654.603 337.666, 661.829 339.830 C 666.206 341.142, 667.530 343.141, 665.961 346.072 C 664.554 348.702, 659.427 348.657, 657.768 346 C 656.294 343.640, 653 343.326, 653 345.545 C 653 346.395, 654.105 348.195, 655.455 349.545 C 660.137 354.228, 669.118 352.106, 670.467 346 C 671.318 342.145, 668.941 338.742, 663.479 336 C 659.501 334.003, 658.500 332.997, 658.500 331 C 658.500 328.898, 659.030 328.449, 661.826 328.181 C 664.494 327.925, 665.258 328.271, 665.692 329.931 C 666.406 332.659, 670 332.717, 670 330 C 670 324.326, 660.438 321.776, 656.174 326.314 M 676.667 324.667 C 675.007 326.326, 676.179 328, 679 328 L 682 328 682 338 L 682 348 678.927 348 C 676.539 348, 675.928 348.391, 676.187 349.750 C 676.462 351.191, 677.800 351.552, 683.761 351.794 C 690.481 352.067, 691 351.941, 691 350.044 C 691 348.530, 690.351 348, 688.500 348 L 686 348 686 338 L 686 328 688.500 328 C 690.333 328, 691 327.467, 691 326 C 691 324.195, 690.333 324, 684.167 324 C 680.408 324, 677.033 324.300, 676.667 324.667 M 700.174 326.314 C 698.257 328.356, 698 329.751, 698 338.140 C 698 346.789, 698.210 347.848, 700.314 349.826 C 704.776 354.017, 714 351.413, 714 345.961 C 714 343.278, 710.398 343.369, 709.692 346.069 C 709.258 347.729, 708.494 348.075, 705.826 347.819 L 702.500 347.500 702.500 338 L 702.500 328.500 705.826 328.181 C 708.494 327.925, 709.258 328.271, 709.692 329.931 C 710.373 332.534, 714 332.739, 714 330.174 C 714 324.639, 704.294 321.929, 700.174 326.314 M 720.706 324.627 C 719.011 326.323, 720.151 328, 723 328 L 726 328 726 338 L 726 348 722.927 348 C 720.538 348, 719.928 348.390, 720.190 349.750 C 720.476 351.231, 721.679 351.500, 728.014 351.500 C 734.002 351.500, 735.500 351.200, 735.500 350 C 735.500 349.107, 734.387 348.372, 732.750 348.184 L 730 347.867 730 338 L 730 328.133 732.750 327.816 C 734.387 327.628, 735.500 326.893, 735.500 326 C 735.500 324.836, 733.922 324.435, 728.456 324.210 C 724.582 324.051, 721.095 324.239, 720.706 324.627 M 744.174 326.314 C 742.257 328.356, 742 329.751, 742 338.140 C 742 346.789, 742.210 347.848, 744.314 349.826 C 747.486 352.805, 752.957 352.739, 755.826 349.686 C 757.743 347.644, 758 346.249, 758 337.860 C 758 329.211, 757.790 328.152, 755.686 326.174 C 752.514 323.195, 747.043 323.261, 744.174 326.314 M 764 338 C 764 351.333, 764.095 352, 766 352 C 767.858 352, 768.006 351.307, 768.079 342.250 C 768.122 336.887, 768.410 333.175, 768.717 334 C 769.025 334.825, 770.607 339.212, 772.233 343.750 C 774.823 350.977, 775.487 352, 777.595 352 L 780 352 780 338 C 780 324.756, 779.894 324, 778.038 324 C 776.250 324, 776.049 324.823, 775.788 333.250 L 775.500 342.500 774.116 338.500 C 769.424 324.942, 768.925 324, 766.428 324 L 764 324 764 338 M 808 338 L 808 352 812.550 352 C 817.563 352, 822.416 349.963, 823.379 347.455 C 823.720 346.565, 824 342.310, 824 338 C 824 333.690, 823.720 329.435, 823.379 328.545 C 822.416 326.037, 817.563 324, 812.550 324 L 808 324 808 338 M 830 338 L 830 352.081 838.250 351.790 C 844.788 351.560, 846.500 351.189, 846.500 350 C 846.500 348.858, 845.007 348.429, 840.250 348.202 L 834 347.905 834 343.452 L 834 339 839.500 339 C 843.722 339, 845 338.652, 845 337.500 C 845 336.348, 843.722 336, 839.500 336 L 834 336 834 332.048 L 834 328.095 840.250 327.798 C 845.007 327.571, 846.500 327.142, 846.500 326 C 846.500 324.811, 844.788 324.440, 838.250 324.210 L 830 323.919 830 338 M 874 337.884 C 874 351.333, 874.094 352, 876 352 C 877.778 352, 878 351.333, 878 346 C 878 340.807, 878.251 340, 879.869 340 C 881.198 340, 882.491 341.735, 884.341 346 C 886.295 350.506, 887.448 352, 888.971 352 C 891.590 352, 891.527 350.974, 888.548 345.096 L 886.097 340.258 888.548 337.955 C 891.541 335.143, 891.802 330.213, 889.134 326.917 C 887.608 325.033, 886.055 324.535, 880.634 324.189 L 874 323.767 874 337.884 M 896.453 325.263 C 896.168 326.004, 896.062 332.211, 896.218 339.055 L 896.500 351.500 904.486 351.500 C 911.297 351.500, 912.522 351.242, 912.810 349.750 C 913.103 348.227, 912.295 348, 906.573 348 L 900 348 900 343.500 L 900 339 905.500 339 C 909.634 339, 911 338.640, 911 337.552 C 911 336.511, 909.527 336.020, 905.750 335.802 L 900.500 335.500 900.190 331.750 L 899.879 328 906.513 328 C 912.291 328, 913.104 327.774, 912.812 326.250 C 912.534 324.794, 911.176 324.451, 904.724 324.208 C 898.933 323.989, 896.839 324.256, 896.453 325.263 M 918 338 C 918 351.333, 918.095 352, 920 352 C 921.758 352, 922 351.333, 922 346.500 L 922 341 926.077 341 C 931.031 341, 936 336.744, 936 332.500 C 936 330.900, 934.839 328.685, 933.077 326.923 C 930.488 324.334, 929.460 324, 924.077 324 L 918 324 918 338 M 942.455 326.455 C 940.208 328.701, 940 329.681, 940 338 C 940 346.319, 940.208 347.299, 942.455 349.545 C 945.548 352.639, 950.733 352.829, 953.811 349.961 C 955.780 348.127, 956 346.920, 956 337.961 C 956 329.333, 955.732 327.732, 954 326 C 951.126 323.126, 945.564 323.345, 942.455 326.455 M 964.455 326.455 C 959.761 331.148, 961.656 335.989, 969.555 339.482 C 975.104 341.936, 976.411 344.189, 973.800 346.800 C 971.788 348.812, 966.888 348.290, 966.290 346 C 965.599 343.358, 962 343.325, 962 345.961 C 962 349.141, 965.898 352, 970.234 352 C 980.604 352, 982.026 338.886, 971.982 335.877 C 967.164 334.433, 965.615 332.790, 966.485 330.048 C 967.390 327.195, 972.275 327.276, 974.200 330.175 C 976.034 332.937, 979.096 332.081, 978.298 329.031 C 976.927 323.789, 968.659 322.250, 964.455 326.455 M 986.455 326.455 C 984.208 328.701, 984 329.681, 984 338 C 984 346.319, 984.208 347.299, 986.455 349.545 C 989.564 352.655, 995.126 352.874, 998 350 C 999.733 348.267, 1000 346.667, 1000 338 C 1000 329.333, 999.733 327.733, 998 326 C 995.126 323.126, 989.564 323.345, 986.455 326.455 M 614 332.500 C 614 336.924, 614.056 337, 617.300 337 C 621.100 337, 623 335.500, 623 332.500 C 623 329.500, 621.100 328, 617.300 328 C 614.056 328, 614 328.076, 614 332.500 M 636.425 329.334 C 636.144 330.067, 636.046 334.455, 636.207 339.084 L 636.500 347.500 639.391 347.830 C 641.034 348.018, 642.647 347.586, 643.126 346.830 C 644.095 345.302, 644.302 331.950, 643.393 329.582 C 642.647 327.638, 637.151 327.442, 636.425 329.334 M 746.450 329.270 C 746.155 330.038, 746.046 334.455, 746.207 339.084 L 746.500 347.500 750 347.500 L 753.500 347.500 753.500 338 L 753.500 328.500 750.243 328.186 C 748.144 327.984, 746.796 328.369, 746.450 329.270 M 812 338 L 812 348 814.800 348 C 819.148 348, 820 346.362, 820 338 C 820 329.638, 819.148 328, 814.800 328 L 812 328 812 338 M 878 332.500 C 878 336.809, 878.124 337, 880.929 337 C 884.200 337, 887 334.753, 887 332.129 C 887 329.488, 884.946 328, 881.300 328 C 878.056 328, 878 328.076, 878 332.500 M 922 332.500 C 922 336.805, 922.126 337, 924.918 337 C 929.742 337, 931 336.069, 931 332.500 C 931 328.931, 929.742 328, 924.918 328 C 922.126 328, 922 328.195, 922 332.500 M 944.628 329.528 C 943.703 331.937, 943.893 345.283, 944.874 346.830 C 945.353 347.586, 946.966 348.018, 948.609 347.830 L 951.500 347.500 951.500 338 L 951.500 328.500 948.378 328.196 C 946.211 327.985, 945.063 328.393, 944.628 329.528 M 988.628 329.528 C 987.703 331.937, 987.893 345.283, 988.874 346.830 C 989.353 347.586, 990.966 348.018, 992.609 347.830 L 995.500 347.500 995.500 338 L 995.500 328.500 992.378 328.196 C 990.211 327.985, 989.063 328.393, 988.628 329.528 M 544.182 374.519 C 535.576 378.257, 530.006 386.122, 530.032 394.500 C 530.059 403.555, 537.905 412.956, 547.076 414.923 C 566.079 418.998, 580.704 398.326, 569.935 382.611 C 564.333 374.434, 552.754 370.796, 544.182 374.519 M 4.667 400.667 C 4.300 401.033, 4 408.233, 4 416.667 L 4 432 10.050 432 C 16.410 432, 21.331 430.186, 22.379 427.455 C 23.620 424.220, 22.966 419.593, 20.967 417.465 C 19.159 415.541, 19.104 415.159, 20.467 414.028 C 22.206 412.584, 22.506 406.814, 20.988 403.978 C 19.420 401.047, 6.839 398.495, 4.667 400.667 M 35.713 400.693 C 35.066 401.789, 28 429.426, 28 430.859 C 28 431.487, 28.883 432, 29.961 432 C 31.404 432, 32.208 430.941, 33 428 C 34.048 424.109, 34.196 424, 38.439 424 C 42.656 424, 42.831 424.125, 43.684 427.750 C 44.336 430.518, 45.148 431.584, 46.784 431.820 C 49.607 432.227, 49.623 432.390, 45.108 415 C 41.554 401.313, 41.198 400.483, 38.766 400.193 C 37.348 400.024, 35.975 400.249, 35.713 400.693 M 59.667 400.667 C 59.300 401.033, 59 402.158, 59 403.167 C 59 404.678, 59.806 405, 63.591 405 L 68.182 405 67.841 415.538 C 67.471 426.969, 66.981 427.956, 61.663 427.985 C 59.423 427.997, 58.588 427.369, 57.694 425 C 56.252 421.180, 53 420.865, 53 424.545 C 53 428.751, 57.141 432, 62.500 432 C 66.041 432, 67.652 431.439, 69.545 429.545 C 71.910 427.181, 72 426.594, 72 413.545 L 72 400 66.167 400 C 62.958 400, 60.033 400.300, 59.667 400.667 M 86.160 401.750 C 85.659 402.712, 83.816 409.125, 82.065 416 C 80.314 422.875, 78.653 429.288, 78.373 430.250 C 77.986 431.583, 78.456 432, 80.345 432 C 82.463 432, 82.924 431.410, 83.509 427.949 L 84.193 423.898 88.814 424.199 C 93.250 424.488, 93.470 424.650, 94.317 428.250 C 95.042 431.332, 95.638 432, 97.667 432 C 99.561 432, 100.006 431.593, 99.582 430.250 C 99.278 429.288, 97.494 422.569, 95.617 415.320 C 93.740 408.071, 91.907 401.658, 91.543 401.070 C 90.507 399.394, 87.166 399.816, 86.160 401.750 M 9 409.500 C 9 413.516, 9.245 414, 11.277 414 C 14.295 414, 18 411.324, 18 409.143 C 18 406.489, 15.952 405, 12.300 405 C 9.056 405, 9 405.076, 9 409.500 M 36.786 412.674 C 35.890 416.422, 35.302 419.636, 35.482 419.815 C 35.661 419.994, 37.099 419.997, 38.677 419.821 L 41.545 419.500 39.981 412.680 L 38.417 405.859 36.786 412.674 M 87.177 413.053 C 85.581 419.966, 85.590 420, 89 420 C 92.448 420, 92.347 420.317, 90.864 414.193 C 89.243 407.494, 88.512 407.269, 87.177 413.053 M 9 423 C 9 427.889, 9.067 428, 12 428 C 15.950 428, 19.343 424.668, 18.416 421.699 C 17.519 418.823, 16.198 418.034, 12.250 418.015 C 9.015 418, 9 418.022, 9 423 M 565.893 464.803 C 562.536 467.802, 562.496 467.936, 562.147 477.602 C 561.583 493.232, 564.243 498, 573.527 498 C 577.973 498, 583 493.530, 583 489.577 C 583 485.985, 579.538 486.101, 577.797 489.750 C 576.766 491.912, 575.685 492.566, 572.741 492.810 C 569.432 493.085, 568.871 492.794, 567.918 490.310 C 566.299 486.089, 567.119 469.166, 569 467.978 C 572.748 465.611, 578 467.491, 578 471.200 C 578 472.453, 578.759 473, 580.500 473 C 582.485 473, 583 472.496, 583 470.556 C 583 466.444, 579.053 462.873, 573.860 462.288 C 569.809 461.831, 568.899 462.119, 565.893 464.803 M 652.357 462.992 C 647.880 464.798, 647 467.641, 647 480.299 C 647 492.068, 647.021 492.175, 649.923 495.077 C 653.103 498.257, 657.828 498.947, 662.343 496.890 C 666.534 494.980, 667.500 491.677, 667.500 479.261 L 667.500 467.834 664.234 464.917 C 660.855 461.898, 656.725 461.229, 652.357 462.992 M 477.226 480.250 C 477.497 497.283, 477.528 497.504, 479.750 497.820 C 481.980 498.136, 482.001 498.023, 482.078 485.320 L 482.155 472.500 483.914 477.500 C 485.343 481.564, 486.108 482.500, 488 482.500 C 489.892 482.500, 490.657 481.564, 492.086 477.500 L 493.845 472.500 493.922 485.250 L 494 498 496.500 498 L 499 498 499 480.500 L 499 463 495.738 463 C 492.581 463, 492.415 463.210, 490.618 469.485 C 489.596 473.052, 488.442 475.773, 488.053 475.533 C 487.664 475.292, 486.522 472.374, 485.514 469.048 C 483.747 463.212, 483.566 463, 480.318 463 L 476.953 463 477.226 480.250 M 512.087 466.750 C 505.726 490.838, 504.269 496.936, 504.759 497.426 C 505.075 497.741, 506.132 498, 507.109 498 C 508.372 498, 509.269 496.631, 510.220 493.250 C 511.549 488.529, 511.585 488.498, 516.206 488.198 L 520.854 487.896 522.207 492.698 C 523.244 496.380, 524.077 497.575, 525.779 497.820 C 527.001 497.995, 528 497.615, 528 496.974 C 528 496.333, 526.122 488.426, 523.826 479.404 L 519.652 463 516.365 463 C 513.408 463, 512.977 463.378, 512.087 466.750 M 534.226 480.250 C 534.497 497.283, 534.528 497.504, 536.750 497.820 C 538.913 498.127, 539 497.847, 539 490.570 C 539 483.117, 539.040 483, 541.557 483 C 543.768 483, 544.576 484.013, 547.532 490.500 C 550.471 496.951, 551.303 498, 553.475 498 C 554.864 498, 556 497.539, 556 496.975 C 556 496.411, 554.433 492.839, 552.518 489.037 C 549.155 482.357, 549.106 482.101, 551.075 481.476 C 554.083 480.522, 556.404 474.965, 555.595 470.655 C 554.508 464.859, 551.168 463, 541.842 463 L 533.953 463 534.226 480.250 M 593.225 479.710 C 590.874 488.944, 588.962 496.869, 588.975 497.320 C 588.989 497.770, 589.999 497.995, 591.221 497.820 C 592.919 497.575, 593.755 496.384, 594.779 492.750 L 596.116 488 601.058 488 C 604.342 488, 606.002 488.419, 606.006 489.250 C 606.009 489.938, 606.480 492.188, 607.053 494.250 C 607.894 497.281, 608.564 498, 610.547 498 C 611.896 498, 612.980 497.663, 612.956 497.250 C 612.931 496.837, 610.977 489.075, 608.613 480 L 604.315 463.500 600.908 463.210 L 597.500 462.920 593.225 479.710 M 619 480.634 L 619 498.269 626.199 497.754 C 632.696 497.289, 633.671 496.933, 636.199 494.104 C 638.909 491.070, 639 490.610, 639 479.907 C 639 469.015, 638.955 468.801, 636.077 465.923 C 633.397 463.243, 632.565 463, 626.077 463 L 619 463 619 480.634 M 675.226 480.250 C 675.497 497.283, 675.528 497.504, 677.750 497.820 C 679.913 498.127, 680 497.847, 680 490.570 C 680 483.142, 680.047 483, 682.525 483 C 684.697 483, 685.529 484.049, 688.468 490.500 C 691.424 496.987, 692.232 498, 694.443 498 C 695.849 498, 697 497.539, 697 496.975 C 697 496.411, 695.433 492.839, 693.518 489.037 C 690.318 482.682, 690.185 482.076, 691.872 481.541 C 694.893 480.582, 697.386 474.872, 696.604 470.703 C 695.507 464.854, 692.194 463, 682.842 463 L 674.953 463 675.226 480.250 M 539 472.445 L 539 478 544.021 478 C 548.455 478, 549.181 477.697, 550.224 475.407 C 551.174 473.323, 551.114 472.292, 549.921 470.157 C 548.691 467.958, 547.622 467.447, 543.718 467.195 L 539 466.890 539 472.445 M 624 480 L 624 493 627.429 493 C 633.086 493, 634 491.203, 634 480.084 C 634 469.056, 632.927 467, 627.171 467 L 624 467 624 480 M 653.245 468.155 C 652.407 468.993, 652 472.891, 652 480.078 C 652 492.028, 652.639 493.353, 658.145 492.818 C 662.121 492.432, 662.764 490.693, 662.886 480 C 662.989 470.891, 661.602 467.614, 657.472 467.205 C 655.832 467.043, 653.930 467.470, 653.245 468.155 M 680 472.500 L 680 478 684.250 477.985 C 689.418 477.966, 690.645 477.263, 691.507 473.827 C 692.473 469.981, 689.194 467, 684 467 L 680 467 680 472.500 M 514.667 475.274 C 512.466 484.038, 512.458 484, 516.500 484 C 518.425 484, 519.981 483.887, 519.958 483.750 C 519.935 483.613, 519.110 480.156, 518.125 476.068 L 516.335 468.636 514.667 475.274 M 599.039 475.717 C 598.327 478.897, 597.529 482.063, 597.266 482.750 C 596.931 483.621, 597.996 484, 600.781 484 L 604.777 484 603.250 477.750 C 602.410 474.313, 601.410 471.147, 601.028 470.717 C 600.646 470.286, 599.751 472.536, 599.039 475.717 M 44.357 532.945 C 39.529 534.998, 37.544 541.476, 40.466 545.647 C 41.272 546.798, 44.406 548.744, 47.431 549.972 C 53.296 552.353, 54.832 554.576, 52.990 558.019 C 51.399 560.991, 44.924 560.466, 43.513 557.250 C 42.908 555.870, 41.650 555, 40.263 555 C 37.609 555, 37.452 556.039, 39.507 560.013 C 42.487 565.776, 53.861 565.865, 56.920 560.150 C 59.682 554.988, 56.732 547.889, 51.266 546.545 C 44.203 544.808, 41.348 539.165, 46.374 536.876 C 49.149 535.611, 53 537.157, 53 539.535 C 53 540.431, 53.971 541, 55.500 541 C 58.640 541, 58.734 538.956, 55.750 535.522 C 53.280 532.679, 47.864 531.454, 44.357 532.945 M 63 535 C 63 536.667, 63.667 537, 67 537 L 71 537 71 550.500 L 71 564 73.500 564 L 76 564 76 550.500 L 76 537 80 537 C 83.333 537, 84 536.667, 84 535 C 84 533.127, 83.333 533, 73.500 533 C 63.667 533, 63 533.127, 63 535 M 95.525 534.250 C 94.879 536.207, 88 562.951, 88 563.505 C 88 563.777, 89.085 564, 90.412 564 C 92.452 564, 92.930 563.375, 93.509 559.949 L 94.193 555.898 98.810 556.199 C 103.147 556.482, 103.468 556.700, 104.098 559.801 C 104.915 563.827, 105.302 564.252, 107.755 563.831 C 109.587 563.516, 109.484 562.741, 105.688 548.250 C 101.704 533.041, 101.686 533, 98.815 533 C 97.232 533, 95.752 533.563, 95.525 534.250 M 115 548.500 C 115 563.333, 115.086 564, 117 564 C 118.795 564, 119 563.333, 119 557.500 C 119 551.312, 119.115 551, 121.391 551 C 123.376 551, 124.262 552.102, 126.613 557.500 C 129.119 563.253, 129.763 564, 132.213 564 L 134.981 564 131.798 557.544 L 128.614 551.087 131.307 548.591 C 134.970 545.196, 135.083 538.992, 131.545 535.455 C 129.404 533.313, 128.192 533, 122.045 533 L 115 533 115 548.500 M 139 535 C 139 536.667, 139.667 537, 143 537 L 147 537 147 550.500 L 147 564 149.500 564 L 152 564 152 550.500 L 152 537 156 537 C 159.333 537, 160 536.667, 160 535 C 160 533.127, 159.333 533, 149.500 533 C 139.667 533, 139 533.127, 139 535 M 119 542 L 119 547 122.977 547 C 126.052 547, 127.304 546.465, 128.500 544.641 C 130.060 542.259, 129.646 539.185, 127.573 537.765 C 126.983 537.361, 124.813 537.024, 122.750 537.015 L 119 537 119 542 M 97.695 542.250 C 97.384 544.038, 96.819 546.962, 96.439 548.750 C 95.774 551.889, 95.861 552, 98.983 552 C 102.005 552, 102.173 551.820, 101.553 549.250 C 99.985 542.755, 98.901 539, 98.592 539 C 98.410 539, 98.007 540.462, 97.695 542.250 M 80.500 585.724 C 73.989 586.197, 73 587.626, 73 596.569 C 73 601.258, 72.547 604.131, 71.695 604.838 C 70.978 605.433, 66.715 606.227, 62.222 606.602 C 56.332 607.093, 53.610 607.774, 52.462 609.042 C 51.174 610.465, 51.121 610.964, 52.185 611.651 C 53.724 612.645, 130.486 613.415, 136.750 612.499 C 144.813 611.320, 141.065 607.758, 130.403 606.468 C 127.156 606.075, 123.938 605.304, 123.250 604.754 C 122.502 604.157, 122 601.367, 122 597.812 C 122 586.452, 119.244 584.919, 99.282 585.180 C 91.702 585.279, 83.250 585.524, 80.500 585.724 M 78.611 596.873 C 77.826 602.796, 78.521 604.867, 81.701 606.077 C 84.467 607.128, 100.895 607.295, 108.750 606.352 L 114 605.721 114 598.861 L 114 592 96.629 592 L 79.258 592 78.611 596.873 M 779.250 629.963 C 776.422 633.549, 776.437 634, 779.381 634 C 780.928 634, 782.699 632.773, 784.432 630.500 L 787.102 627 784.301 627.055 C 782.456 627.092, 780.732 628.084, 779.250 629.963 M 601 654.500 L 601 672 603.500 672 C 605.924 672, 606 671.792, 606 665.124 L 606 658.248 611.565 657.786 C 619.098 657.161, 622.500 653.929, 622.500 647.395 C 622.500 643.509, 622.018 642.405, 619.234 639.918 C 616.242 637.245, 615.340 637, 608.484 637 L 601 637 601 654.500 M 631.455 639.455 C 629.114 641.795, 629 642.482, 629 654.232 C 629 663.726, 629.355 667.061, 630.545 668.761 C 633.676 673.231, 643.686 673.337, 647.250 668.939 C 648.707 667.140, 649 664.697, 649 654.344 C 649 642.475, 648.888 641.797, 646.545 639.455 C 644.582 637.491, 643.072 637, 639 637 C 634.928 637, 633.418 637.491, 631.455 639.455 M 660.913 638.282 C 658.769 639.928, 657 643.410, 657 645.984 C 657 650.572, 659.793 653.779, 665.723 655.998 C 671.899 658.308, 672.961 659.285, 672.985 662.679 C 673.006 665.664, 670.415 668, 667.084 668 C 664.308 668, 661 665.375, 661 663.171 C 661 662.527, 659.875 662, 658.500 662 C 652.698 662, 658.719 671.869, 664.673 672.118 C 673.521 672.489, 678 669.224, 678 662.403 C 678 657.429, 675.357 654.277, 669.277 652.002 C 666.114 650.819, 663.189 649.322, 662.778 648.675 C 659.092 642.880, 667.533 638.049, 671.821 643.500 C 672.903 644.875, 674.766 646, 675.961 646 C 677.741 646, 678.017 645.592, 677.487 643.750 C 676.284 639.575, 672.334 636.997, 667.194 637.032 C 664.612 637.049, 661.786 637.612, 660.913 638.282 M 686 639.500 C 686 641.690, 686.433 642, 689.500 642 L 693 642 693 654.500 L 693 667 689.500 667 C 686.433 667, 686 667.310, 686 669.500 C 686 671.993, 686.029 672, 695.570 672 C 704.922 672, 705.132 671.949, 704.820 669.750 C 704.575 668.025, 703.741 667.427, 701.250 667.187 L 698 666.873 698 654.500 L 698 642.127 701.250 641.813 C 703.741 641.573, 704.575 640.975, 704.820 639.250 C 705.132 637.051, 704.922 637, 695.570 637 C 686.029 637, 686 637.007, 686 639.500 M 716.306 639.411 C 713.599 641.738, 713.488 642.206, 713.174 652.661 C 712.994 658.623, 713.311 664.714, 713.879 666.198 C 715.326 669.981, 719.256 672.246, 724.254 672.178 C 727.693 672.131, 729.023 671.535, 731.250 669.044 C 734.802 665.071, 734.911 662, 731.500 662 C 730 662, 729 662.571, 729 663.429 C 729 667.554, 722.605 669.431, 719.655 666.171 C 717.119 663.369, 717.255 644.984, 719.829 642.655 C 723.119 639.677, 729 641.547, 729 645.571 C 729 646.429, 730 647, 731.500 647 C 734.842 647, 734.805 644.110, 731.411 640.077 C 729.175 637.419, 728.161 637, 723.967 637 C 720.278 637, 718.438 637.579, 716.306 639.411 M 742 639.500 C 742 641.690, 742.433 642, 745.500 642 L 749 642 749 654.500 L 749 667 745.500 667 C 742.433 667, 742 667.310, 742 669.500 C 742 671.991, 742.033 672, 751.500 672 C 760.967 672, 761 671.991, 761 669.500 C 761 667.310, 760.567 667, 757.500 667 L 754 667 754 654.500 L 754 642 757.500 642 C 760.567 642, 761 641.690, 761 639.500 C 761 637.009, 760.967 637, 751.500 637 C 742.033 637, 742 637.009, 742 639.500 M 772.543 639.366 C 769.701 642.208, 768.443 650.137, 769.330 659.629 C 770.250 669.479, 772.646 672.282, 780.062 672.180 C 788.161 672.068, 790 668.776, 790 654.387 C 790 640.024, 788.259 637.089, 779.705 637.032 C 775.969 637.007, 774.386 637.523, 772.543 639.366 M 798 654.437 L 798 672 800.500 672 L 803 672 803.065 659.750 L 803.130 647.500 807.441 659.500 C 811.618 671.128, 811.849 671.510, 814.876 671.813 L 818 672.127 818 654.563 L 818 637 815.421 637 L 812.841 637 813.171 649.920 C 813.352 657.025, 813.411 662.749, 813.302 662.638 C 813.193 662.527, 811.119 656.826, 808.695 649.968 C 804.397 637.815, 804.206 637.492, 801.143 637.187 L 798 636.873 798 654.437 M 861 637.543 C 861 637.841, 859.002 645.744, 856.559 655.104 L 852.118 672.121 854.809 671.811 C 857.093 671.547, 857.636 670.850, 858.402 667.203 L 859.304 662.906 864.402 663.203 L 869.500 663.500 870.392 667.750 C 871.136 671.296, 871.675 672, 873.642 672 C 874.939 672, 876 671.507, 876 670.904 C 876 670.301, 874.122 662.426, 871.826 653.404 L 867.652 637 864.326 637 C 862.497 637, 861 637.244, 861 637.543 M 882.442 638.290 C 882.170 639, 882.071 646.762, 882.224 655.540 L 882.500 671.500 888.917 671.802 C 892.447 671.968, 896.630 671.567, 898.214 670.911 C 903.988 668.520, 905.596 659.659, 901.009 655.508 C 899.074 653.757, 899.074 653.721, 901.029 651.236 C 903.906 647.579, 903.554 643.401, 900.077 639.923 C 897.394 637.241, 896.569 637, 890.046 637 C 885.163 637, 882.782 637.404, 882.442 638.290 M 917.665 637.750 C 917.087 638.709, 909 669.787, 909 671.052 C 909 671.573, 910.072 672, 911.381 672 C 913.369 672, 913.950 671.256, 914.896 667.500 L 916.029 663 920.896 663 L 925.763 663 926.896 667.500 C 927.868 671.362, 928.391 672, 930.582 672 C 932.539 672, 933.017 671.591, 932.630 670.250 C 932.179 668.685, 927.412 650.513, 924.891 640.750 C 924.052 637.500, 923.536 637, 921.020 637 C 919.424 637, 917.914 637.337, 917.665 637.750 M 944 639.456 C 944 641.804, 944.346 642, 948.500 642 L 953 642 953 654.021 C 953 665.925, 952.975 666.054, 950.460 667.200 C 946.953 668.798, 942.756 667.206, 942.002 663.991 C 941.634 662.420, 940.602 661.382, 939.209 661.180 C 937.360 660.913, 937 661.339, 937 663.794 C 937 671.708, 949.323 675.405, 955.410 669.317 C 958.385 666.342, 959.259 660.607, 958.812 647 L 958.500 637.500 951.250 637.206 C 944.073 636.915, 944 636.938, 944 639.456 M 970.913 638.282 C 967.780 640.688, 967 643.897, 967 654.387 C 967 668.776, 968.839 672.068, 976.938 672.180 C 981.327 672.240, 984.524 670.758, 986.015 667.972 C 987.561 665.084, 988.376 654.164, 987.543 647.500 C 986.572 639.729, 983.890 636.988, 977.295 637.032 C 974.658 637.049, 971.786 637.612, 970.913 638.282 M 635.750 642.080 C 634.244 642.957, 634 644.701, 634 654.571 C 634 665.837, 634.045 666.063, 636.500 667.182 C 638.370 668.034, 639.630 668.034, 641.500 667.182 C 643.955 666.063, 644 665.838, 644 654.557 C 644 644.224, 643.806 642.966, 642.066 642.035 C 639.670 640.753, 638.009 640.765, 635.750 642.080 M 776.750 642.080 C 775.247 642.955, 775 644.690, 775 654.350 C 775 666.249, 775.594 668, 779.629 668 C 784.074 668, 785 665.674, 785 654.500 C 785 646.418, 784.655 643.798, 783.429 642.571 C 781.634 640.776, 779.285 640.604, 776.750 642.080 M 973.571 642.571 C 972.345 643.798, 972 646.418, 972 654.500 C 972 665.674, 972.926 668, 977.371 668 C 981.397 668, 982 666.242, 982 654.500 C 982 647.200, 981.589 642.989, 980.800 642.200 C 979.117 640.517, 975.436 640.706, 973.571 642.571 M 606 647.555 L 606 653.110 610.718 652.805 C 614.611 652.553, 615.693 652.040, 616.908 649.865 C 618.228 647.505, 618.203 646.958, 616.667 644.615 C 615.242 642.440, 614.201 642, 610.477 642 L 606 642 606 647.555 M 887 647.132 L 887 652.263 891.039 651.722 C 895.887 651.071, 898 649.510, 898 646.578 C 898 643.314, 896.077 642, 891.300 642 L 887 642 887 647.132 M 862.684 650.192 C 861.744 654.211, 860.980 657.837, 860.987 658.250 C 860.994 658.663, 862.575 659, 864.500 659 C 866.425 659, 867.981 658.663, 867.958 658.250 C 867.935 657.837, 867.123 654.211, 866.154 650.192 L 864.393 642.884 862.684 650.192 M 42.390 646.685 C 38.731 649.211, 37.626 649.407, 23.757 649.978 C 8.734 650.597, 6.513 651.222, 7.167 654.644 C 7.488 656.322, 8.911 656.548, 22.039 657 L 36.556 657.500 43.588 661.750 C 51.169 666.331, 53.555 666.799, 57.901 664.551 C 63.655 661.576, 65.581 654.957, 62.452 648.907 C 59.511 643.220, 49.082 642.065, 42.390 646.685 M 130.019 647.210 C 125.377 654.843, 126.805 659.699, 134.723 663.202 C 141.018 665.986, 145.584 665.155, 149.526 660.507 L 152.551 656.938 167.183 657.085 C 182.002 657.234, 184 656.934, 184 654.563 C 184 651.444, 180.758 650.591, 166.652 649.997 C 153.641 649.450, 152.130 649.184, 147.912 646.701 C 144.382 644.622, 142.016 644, 137.647 644 C 132.330 644, 131.847 644.203, 130.019 647.210 M 919.139 649.244 C 918.488 652.135, 917.688 655.513, 917.361 656.750 C 916.817 658.809, 917.108 659, 920.784 659 L 924.801 659 922.977 651.910 C 921.974 648.010, 920.966 644.633, 920.737 644.404 C 920.508 644.175, 919.789 646.353, 919.139 649.244 M 542.248 652.106 C 536.577 654.914, 529.314 663.132, 527.897 668.343 C 526.438 673.714, 527.340 685.808, 529.547 690.458 C 530.599 692.675, 532.936 695.051, 535.603 696.614 C 542.445 700.623, 554.835 701.326, 605.500 700.580 C 654.809 699.854, 664.452 699.119, 661.635 696.301 C 660.322 694.988, 638.524 694.140, 604.330 694.070 L 570.160 694 573.220 687.876 C 578.966 676.377, 576.877 667.390, 566.266 657.964 C 557.319 650.017, 550.051 648.244, 542.248 652.106 M 541.934 657.750 C 523.058 667.320, 528.852 695.277, 550.029 696.809 C 557.778 697.369, 563.709 695.171, 568.370 690.012 C 576.101 681.455, 575.691 669.656, 567.371 661.325 C 560.459 654.402, 551.126 653.090, 541.934 657.750 M 887 661.500 L 887 667 891.965 667 C 895.850 667, 897.155 666.579, 897.965 665.066 C 900.541 660.252, 897.274 656, 891 656 L 887 656 887 661.500 M 159.429 717.115 C 159.189 717.503, 159.270 718.541, 159.609 719.422 C 159.947 720.304, 159.761 721.583, 159.195 722.265 C 157.562 724.232, 156.776 743.652, 157.951 753 C 158.538 757.675, 159.007 762.737, 158.993 764.250 C 158.969 766.934, 159.107 767, 164.734 767.011 C 167.905 767.017, 172.143 767.294, 174.150 767.626 L 177.800 768.229 178.372 783.365 C 178.686 791.689, 179.189 814.334, 179.490 833.687 L 180.036 868.874 105.067 869.187 C 50.768 869.414, 29.785 869.814, 28.962 870.637 C 26.888 872.712, 29.780 873.223, 47.565 873.921 C 57.119 874.295, 65.249 874.916, 65.632 875.299 C 66.016 875.682, 64.291 879.034, 61.800 882.748 C 59.309 886.462, 54.885 893.325, 51.968 898 C 49.051 902.675, 42.413 912.571, 37.216 919.991 C 27.092 934.446, 25.735 936.953, 26.963 938.940 C 29.569 943.157, 35.378 936.130, 59.005 900.182 L 76.302 873.864 91.571 874.182 C 99.968 874.357, 107.203 874.865, 107.648 875.312 C 108.735 876.403, 102.770 887.741, 98.460 892.776 C 96.557 894.999, 95 897.285, 95 897.855 C 95 898.426, 89.974 906.440, 83.831 915.665 C 71.651 933.955, 69.914 937.314, 71.713 939.113 C 73.128 940.528, 78 939.437, 78 937.704 C 78 937.012, 79.689 934.198, 81.753 931.451 C 83.817 928.704, 92.930 914.920, 102.003 900.820 L 118.500 875.184 131.500 874.506 C 138.650 874.133, 146.621 873.979, 149.213 874.164 L 153.926 874.500 148.370 883 C 145.314 887.675, 141.673 893.750, 140.278 896.500 C 138.882 899.250, 136.236 903.176, 134.396 905.225 C 132.556 907.273, 130.781 910.026, 130.450 911.342 C 130.120 912.658, 128.534 914.708, 126.925 915.897 C 125.316 917.087, 124 918.484, 124 919.003 C 124 919.522, 121.938 923.288, 119.417 927.372 C 114.652 935.093, 113.956 939.185, 117.298 939.822 C 119.735 940.287, 122 938.233, 122 935.558 C 122 934.349, 123.394 931.817, 125.097 929.930 C 129.513 925.038, 140.120 909.704, 146.257 899.338 C 149.141 894.467, 152.474 889.512, 153.665 888.326 C 154.856 887.140, 156.829 883.431, 158.049 880.085 L 160.268 874 179.021 874 L 197.775 874 180.218 900.250 C 161.086 928.855, 157.050 936.150, 159.032 938.538 C 159.699 939.342, 160.752 939.990, 161.372 939.977 C 162.531 939.953, 181.617 911.593, 196.016 888.500 C 202.400 878.262, 204.693 875.366, 206.811 874.868 C 210.635 873.970, 238.270 873.883, 239.649 874.765 C 240.419 875.258, 239.011 877.966, 235.364 883 C 232.375 887.125, 227.380 894.712, 224.262 899.860 C 221.144 905.008, 217.560 909.898, 216.296 910.725 C 215.033 911.553, 214 913.077, 214 914.112 C 214 915.147, 212.440 917.720, 210.534 919.830 C 206.265 924.556, 201 934.370, 201 937.602 C 201 940.720, 203.912 940.795, 206.743 937.750 C 207.893 936.513, 210.947 931.914, 213.529 927.531 C 216.112 923.148, 219.681 917.748, 221.461 915.531 C 226.419 909.354, 246.762 879.326, 247.444 877.175 C 247.898 875.747, 249.352 875.116, 253.274 874.645 C 259.910 873.848, 275.796 873.839, 278.750 874.630 C 281.498 875.367, 281.702 878.443, 279.245 882.090 C 278.285 883.514, 275.137 888.184, 272.250 892.468 C 269.362 896.752, 267 900.790, 267 901.442 C 267 902.093, 263.864 906.763, 260.031 911.818 C 248.686 926.782, 242.180 940.072, 246.250 939.968 C 246.938 939.951, 248.241 939.372, 249.147 938.683 C 250.852 937.386, 285.941 885.437, 290.048 878.129 L 292.368 874 306.934 874.014 C 322.245 874.028, 326 874.494, 326 876.380 C 326 877.011, 324.448 879.831, 322.552 882.647 C 320.655 885.464, 317.141 891.083, 314.743 895.134 C 312.346 899.185, 307.259 906.613, 303.439 911.640 C 293.221 925.088, 287.112 938.430, 290.603 939.675 C 292.345 940.297, 298.603 933.222, 302.079 926.701 C 303.825 923.425, 308.284 916.561, 311.988 911.446 C 315.692 906.332, 322.636 895.815, 327.419 888.074 L 336.115 874 351.589 874 C 368.899 874, 369.648 874.322, 366.703 880.496 C 365.834 882.319, 358.717 893.640, 350.887 905.655 C 335.661 929.019, 330.670 937.657, 331.561 939.098 C 333.482 942.207, 340.561 936.373, 344.630 928.328 C 346.208 925.206, 352.094 916.093, 357.708 908.076 C 363.323 900.059, 369.822 889.979, 372.151 885.676 C 377.977 874.911, 378.673 874.606, 398.425 874.170 L 414.349 873.818 412.841 876.159 C 412.011 877.447, 409.394 881.837, 407.025 885.917 C 400.604 896.972, 387.032 917, 385.962 917 C 385.448 917, 384.371 918.570, 383.569 920.489 C 382.767 922.408, 380.729 925.987, 379.040 928.442 C 372.996 937.227, 374.394 943.960, 380.700 936.434 C 386.149 929.930, 402.351 906.381, 411.198 892.104 C 421.639 875.255, 422.288 874.875, 441.750 874.199 C 453.583 873.788, 455 873.916, 455 875.389 C 455 877.281, 454.207 878.585, 436.987 905 C 418.425 933.472, 415.970 939, 421.883 939 C 424.366 939, 425.122 938.274, 427.341 933.750 C 428.757 930.862, 436.240 918.873, 443.969 907.107 C 451.698 895.340, 459.471 883.078, 461.242 879.857 L 464.462 874 481.231 874 C 492.103 874, 498 874.363, 498 875.033 C 498 877.983, 488.036 894.708, 478.883 907.122 C 476.197 910.765, 474 913.979, 474 914.264 C 474 914.550, 471.602 918.604, 468.671 923.273 C 461.744 934.305, 460.310 937.721, 461.940 939.306 C 462.900 940.238, 463.914 939.645, 466.573 936.597 C 470.481 932.115, 482.327 914.915, 498.147 890.750 L 509.113 874 520.806 874.011 C 536.033 874.025, 540 874.678, 540 877.171 C 540 880.712, 528.258 900.911, 521.492 909.009 C 519.571 911.308, 518 913.880, 518 914.723 C 518 915.567, 516.375 918.057, 514.388 920.255 C 510.208 924.883, 504.535 936.346, 505.361 938.498 C 506.862 942.411, 511.103 937.137, 536.408 899.891 L 553.126 875.283 560.714 874.641 C 571.811 873.703, 584.794 873.858, 585.461 874.937 C 586.782 877.075, 573.862 898.837, 561.894 914.633 C 556.514 921.734, 550 934.104, 550 937.222 C 550 938.200, 550.718 939, 551.596 939 C 554.663 939, 558.765 935.001, 561.394 929.448 C 562.852 926.370, 569.097 916.288, 575.272 907.046 C 581.448 897.803, 588.656 886.587, 591.291 882.120 L 596.083 874 613.041 874 C 622.369 874, 630 874.201, 630 874.446 C 630 875.195, 622.853 887.201, 619.405 892.245 C 617.621 894.855, 615.867 898.330, 615.507 899.968 C 615.147 901.606, 613.474 904.421, 611.789 906.223 C 607.111 911.227, 590.885 936.165, 591.212 937.849 C 592.660 945.310, 606.712 927.726, 629.049 890.500 L 638.650 874.500 656.325 874.227 C 666.046 874.077, 674 874.159, 674 874.410 C 674 875.406, 655.581 903.764, 652.398 907.668 C 650.529 909.961, 649 912.506, 649 913.324 C 649 914.142, 647.452 916.663, 645.561 918.927 C 638.588 927.274, 633.608 938.022, 636.023 939.514 C 638.058 940.772, 641.420 936.351, 662.301 904.953 L 682.554 874.500 697.798 874.224 C 711.080 873.983, 713.123 874.156, 713.663 875.565 C 714.597 877.998, 712.384 881.935, 696.085 906.838 C 678.723 933.364, 676.282 937.682, 677.792 939.192 C 679.346 940.746, 683.759 939.314, 685.367 936.734 C 686.133 935.505, 690.249 928.875, 694.513 922 C 698.777 915.125, 707.439 901.513, 713.760 891.750 L 725.254 874 743.100 874 L 760.946 874 756.723 880.597 C 752.752 886.801, 747.526 894.695, 733.859 915.139 C 725.552 927.566, 720.855 936.458, 721.588 938.368 C 722.518 940.791, 724.597 940.351, 726.872 937.250 C 727.982 935.737, 730.268 932.700, 731.952 930.500 C 737.012 923.889, 761.481 886.697, 765.096 880.123 L 768.462 874 783.981 874.014 C 792.516 874.021, 800.471 874.288, 801.659 874.606 C 803.766 875.172, 803.730 875.330, 800.159 881.187 C 798.146 884.489, 791.345 894.909, 785.045 904.345 C 770.836 925.626, 766 933.835, 766 936.675 C 766 941.492, 769.863 940.610, 772.435 935.206 C 773.406 933.168, 780.229 923.334, 787.600 913.353 C 794.970 903.372, 801 894.795, 801 894.294 C 801 893.792, 803.697 888.909, 806.994 883.441 C 810.290 877.973, 812.990 872.782, 812.994 871.904 C 813.004 869.336, 797.937 869, 682.843 869 L 577 869 577 818.607 L 577 768.214 587.250 767.357 L 597.500 766.500 597.768 742.225 C 597.976 723.318, 597.755 717.860, 596.768 717.538 C 594.522 716.805, 159.880 716.386, 159.429 717.115 M 171.643 724.028 C 167.089 725.393, 165.178 727.826, 163.920 733.862 C 162.633 740.041, 163.215 758.615, 164.745 760.145 C 165.251 760.651, 166.385 760.789, 167.265 760.452 C 168.731 759.889, 197.787 729.021, 200.807 724.819 C 202.053 723.084, 201.475 723.004, 188.307 723.086 C 180.713 723.133, 173.214 723.557, 171.643 724.028 M 210.973 724.694 C 202.142 730.743, 177 756.506, 177 759.505 C 177 760.494, 177.999 761, 179.948 761 C 183.636 761, 190.417 755.416, 205.610 739.869 C 216.580 728.644, 219.532 724.865, 218.298 723.631 C 217.125 722.458, 213.460 722.990, 210.973 724.694 M 216.843 736.750 C 209.413 744.313, 201.885 752.513, 200.114 754.974 C 197.121 759.131, 197.016 759.539, 198.637 760.724 C 201.434 762.769, 217.605 762.363, 222.534 760.124 C 225.181 758.921, 231.880 752.731, 242.034 742.104 C 250.540 733.200, 257.628 725.552, 257.783 725.107 C 258.101 724.203, 245.968 723, 236.524 723 L 230.350 723 216.843 736.750 M 266.946 725.833 C 259.582 730.524, 234 757.206, 234 760.195 C 234 760.638, 236.182 761, 238.850 761 C 242.609 761, 244.577 760.357, 247.600 758.141 C 253.736 753.643, 273.267 732.285, 275.964 727.123 C 276.973 725.192, 276.953 724.585, 275.853 723.888 C 273.575 722.445, 271.579 722.881, 266.946 725.833 M 288.542 723.729 C 284.908 724.652, 281.871 727.300, 278.006 732.913 C 275.890 735.986, 270.743 742.325, 266.568 747 C 258.645 755.873, 256.722 759.526, 259.115 761.163 C 259.877 761.684, 264.840 761.931, 270.144 761.712 C 283.032 761.181, 285.138 759.845, 303.949 740.266 L 319.097 724.500 311.799 723.881 C 302.930 723.128, 291.209 723.052, 288.542 723.729 M 326.946 725.820 C 324.501 727.370, 319.571 731.533, 315.991 735.070 C 308.029 742.935, 294 758.916, 294 760.121 C 294 761.823, 299.227 760.974, 302.324 758.769 C 311.902 751.949, 336 727.408, 336 724.475 C 336 722.114, 331.806 722.737, 326.946 725.820 M 341.879 726.921 C 340.021 729.077, 333.844 735.940, 328.154 742.171 C 317.271 754.087, 314.471 758.178, 315.449 760.729 C 315.953 762.042, 317.745 762.200, 327.272 761.770 C 334.501 761.444, 339.925 760.664, 342.500 759.583 C 347.412 757.519, 353.518 751.762, 356.100 746.759 C 357.163 744.701, 362.355 738.514, 367.638 733.009 L 377.245 723 361.252 723 L 345.259 723 341.879 726.921 M 385.255 724.645 C 378.964 727.746, 354 755.674, 354 759.610 C 354 762.007, 358.499 761.143, 363.100 757.863 C 369.655 753.188, 396 726.616, 396 724.678 C 396 722.454, 389.739 722.435, 385.255 724.645 M 390.250 740.209 C 380.762 749.790, 373 758.115, 373 758.708 C 373 760.591, 375.856 761.002, 388.332 760.917 L 400.500 760.835 417.900 742.901 C 427.470 733.037, 435.098 724.765, 434.852 724.519 C 434.606 724.273, 428.351 723.783, 420.952 723.430 L 407.500 722.789 390.250 740.209 M 442.802 726.008 C 434.592 731.446, 411.021 756.829, 411.004 760.250 C 410.995 761.995, 416.101 760.796, 419.173 758.331 C 424.719 753.882, 442.954 735.817, 447.104 730.660 C 453.498 722.717, 451.322 720.365, 442.802 726.008 M 445.504 740.102 C 428.980 757.690, 427.345 759.682, 428.498 760.825 C 429.688 762.005, 454.310 761.478, 458.058 760.192 C 460.584 759.326, 466.462 753.919, 478.308 741.567 C 487.489 731.994, 495 723.900, 495 723.581 C 495 723.261, 487.462 723.017, 478.250 723.038 L 461.500 723.076 445.504 740.102 M 502.446 726.127 C 499.726 727.847, 492.458 734.327, 486.296 740.528 C 471.804 755.109, 468.070 761, 473.320 761 C 476.090 761, 481.139 756.940, 494.355 744.086 C 505.504 733.241, 512.272 725.249, 511.443 723.908 C 510.411 722.239, 507.434 722.973, 502.446 726.127 M 509.843 736.750 C 496.308 750.528, 490 758.125, 490 760.650 C 490 762.586, 505.136 762.446, 511.865 760.448 C 516.497 759.072, 519.109 756.945, 534.796 741.775 C 544.533 732.359, 552.650 724.282, 552.833 723.827 C 553.017 723.372, 546.458 723, 538.259 723 L 523.350 723 509.843 736.750 M 558.360 727.332 C 552.155 731.919, 536.687 747.688, 531.870 754.338 C 528.341 759.210, 528.038 763, 531.177 763 C 533.467 763, 561.567 736.110, 567.100 728.625 C 572.318 721.565, 567.187 720.806, 558.360 727.332 M 580.706 725.307 C 576.132 728.076, 556.463 747.443, 550.850 754.705 C 548.513 757.727, 547.133 760.407, 547.558 761.094 C 548.595 762.772, 571.365 761.710, 576.016 759.767 C 580.301 757.976, 589.653 747.959, 592.136 742.500 C 594.254 737.846, 594.680 726.080, 592.800 724.200 C 590.870 722.270, 584.807 722.824, 580.706 725.307 M 589.750 755.931 C 588.237 758.070, 587 760.085, 587 760.410 C 587 761.794, 592.828 760.890, 593.393 759.418 C 594.249 757.187, 594.149 751.996, 593.250 752.021 C 592.837 752.033, 591.263 753.792, 589.750 755.931 M 188.042 767.450 C 187.333 768.303, 186.549 771.138, 186.297 773.751 L 185.841 778.500 190.496 773.728 C 193.057 771.103, 194.971 768.403, 194.749 767.728 C 194.141 765.877, 189.507 765.685, 188.042 767.450 M 285.171 769.991 C 277.777 775.347, 251.168 800.994, 218.214 834.527 C 192.300 860.896, 186.242 867.556, 187.518 868.270 C 188.564 868.856, 189.904 868.638, 191.439 867.632 C 203.212 859.918, 291 771.933, 291 767.847 C 291 766.343, 289.389 766.936, 285.171 769.991 M 304.081 770.056 C 299.153 773.626, 253.298 817.938, 224.554 846.906 C 210.134 861.439, 204.910 867.310, 205.700 868.100 C 207.699 870.099, 213.390 866.242, 227.147 853.565 C 243.648 838.360, 297.745 783.771, 304.808 775.198 C 312.038 766.423, 311.765 764.490, 304.081 770.056 M 339.815 769.750 C 339.044 771.617, 338.533 788.001, 338.226 820.750 L 337.773 869 378.548 869 L 419.323 869 418.662 835.837 C 418.298 817.597, 418 794.647, 418 784.837 L 418 767 379.475 767 L 340.950 767 339.815 769.750 M 460.605 770.036 C 454.469 773.927, 437.099 790.765, 431.397 798.349 C 428.556 802.129, 427 805.224, 427 807.099 C 427 808.695, 427.344 810, 427.764 810 C 429.824 810, 467 770.661, 467 768.481 C 467 766.368, 466.007 766.610, 460.605 770.036 M 204.946 770.842 C 200.183 773.886, 191.005 782.929, 187.905 787.631 C 185.812 790.806, 185.403 794, 187.091 794 C 188.885 794, 211 771.511, 211 769.686 C 211 767.376, 210.097 767.549, 204.946 770.842 M 226.500 769.576 C 220.792 772.550, 212.463 779.401, 203.411 788.565 C 192.295 799.819, 186 808.875, 186 813.614 C 186 815.476, 186.360 817, 186.800 817 C 187.967 817, 230.520 773.886, 231.825 771.381 C 233.707 767.772, 231.437 767.003, 226.500 769.576 M 245.421 771.224 C 242.715 772.998, 231.016 783.910, 219.424 795.474 C 193.529 821.308, 182.320 835, 187.067 835 C 190.125 835, 253 772.007, 253 768.943 C 253 767.192, 250.367 767.984, 245.421 771.224 M 263.120 772.547 C 241.308 790.807, 187 847.541, 187 852.066 C 187 852.580, 187.527 853, 188.171 853 C 189.447 853, 265.265 777.870, 270.165 771.750 C 273.156 768.015, 273.159 768, 270.834 768.022 C 269.550 768.033, 266.079 770.070, 263.120 772.547 M 324.500 770.196 C 316.813 775.791, 303.452 788.469, 265.238 826.424 C 232.365 859.074, 224.297 867.587, 225.557 868.292 C 227.729 869.507, 231.969 866.415, 247.056 852.612 C 267.604 833.813, 332.456 770.530, 332.252 769.478 C 331.890 767.615, 327.487 768.023, 324.500 770.196 M 425.500 769 C 425.140 769.582, 426.137 770, 427.882 770 C 429.532 770, 431.160 769.550, 431.500 769 C 431.860 768.418, 430.863 768, 429.118 768 C 427.468 768, 425.840 768.450, 425.500 769 M 438.396 771.250 C 431.817 775.677, 427 782.185, 427 786.646 L 427 790.136 429.750 788.165 C 434.666 784.641, 448.177 770.095, 447.520 769.033 C 446.381 767.190, 443.327 767.932, 438.396 771.250 M 477.500 771.670 C 471.517 776.003, 438.394 809.351, 430.549 818.940 C 425.339 825.308, 423.677 829, 426.019 829 C 427.357 829, 473.863 783.200, 480.143 775.698 C 487.392 767.039, 486.266 765.323, 477.500 771.670 M 500.500 768.955 C 496.609 770.567, 483.198 782.940, 458.108 808.069 C 431.935 834.282, 424.592 842.652, 425.167 845.616 C 425.431 846.976, 426.845 846.221, 432 841.967 C 440.630 834.844, 489.558 786.485, 497.633 777.097 C 505.186 768.316, 505.723 766.792, 500.500 768.955 M 518.410 770.826 C 506.029 779.818, 442.077 842.434, 429.750 857.633 C 420.765 868.711, 422.135 870.314, 432.724 861.113 C 442.300 852.794, 520.463 773.989, 521.940 771.164 C 523.737 767.730, 522.796 767.640, 518.410 770.826 M 535.254 772.468 C 527.645 778.188, 473.641 830.246, 456.828 848.068 C 442.601 863.148, 439.506 866.839, 440.366 867.699 C 442.372 869.706, 465.393 848.523, 507.544 805.881 C 535.404 777.698, 542.868 769.535, 541.777 768.444 C 541.501 768.168, 538.566 769.979, 535.254 772.468 M 554.304 772.355 C 543.710 780.154, 465.075 857.377, 460.288 864.684 C 456.217 870.896, 463.904 868.829, 472.911 861.290 C 480.432 854.995, 550.695 785.254, 558.110 776.724 C 561.350 772.998, 564 769.510, 564 768.974 C 564 766.808, 559.894 768.240, 554.304 772.355 M 563.957 783.087 C 560.406 786.027, 539.500 806.322, 517.500 828.189 C 480.252 865.210, 477.718 867.947, 480.667 867.973 C 483.050 867.993, 485.527 866.620, 490.667 862.429 C 507.709 848.533, 562.154 793.769, 568.578 784.062 C 572.811 777.665, 570.975 777.278, 563.957 783.087 M 325.928 788.883 C 319.317 793.153, 304.316 806.879, 277.090 833.570 C 251.146 859.005, 244.261 866.661, 245.877 868.277 C 248.122 870.522, 256.300 864.465, 274.388 847.160 C 304.757 818.105, 332.557 788.223, 330.827 786.493 C 330.568 786.234, 328.363 787.310, 325.928 788.883 M 540.758 824.750 C 514.354 850.899, 500 866.194, 500 868.178 C 500 874.877, 567.730 808.944, 571.321 798.750 C 573.113 793.662, 566.283 799.473, 540.758 824.750 M 329.299 804.965 C 322.651 809.007, 269.853 860.938, 266.746 866.489 C 265.527 868.667, 267.293 868.999, 270.875 867.264 C 280.863 862.426, 335.501 806.168, 332.818 803.484 C 332.592 803.259, 331.008 803.925, 329.299 804.965 M 563.166 821.942 C 559.900 824.660, 548.085 835.953, 536.911 847.039 C 519.450 864.361, 516.844 867.333, 518.366 868.185 C 519.724 868.945, 521.114 868.514, 524.319 866.338 C 529.992 862.487, 566.318 826.370, 568.914 822 C 572.890 815.305, 571.161 815.288, 563.166 821.942 M 325.500 826.787 C 319.232 831.398, 286 865.634, 286 867.480 C 286 872.086, 297 863.996, 311.717 848.566 C 324.205 835.473, 330.291 827.713, 329.833 825.471 C 329.556 824.120, 328.822 824.343, 325.500 826.787 M 558.945 843.948 C 545.773 856.286, 536.428 866.828, 537.613 868.013 C 540.480 870.880, 560.125 854.554, 568.003 842.758 C 571.896 836.927, 572.467 834.953, 570.438 834.343 C 569.922 834.188, 564.750 838.510, 558.945 843.948 M 326.999 843.282 C 325.623 844.502, 319.858 850.335, 314.187 856.245 C 304.704 866.127, 302.394 869.883, 306.782 868.288 C 312.766 866.112, 328.360 852.072, 331.468 846.062 C 334.127 840.920, 331.502 839.287, 326.999 843.282 M 561.477 861.119 L 553.500 869.238 559.355 868.598 C 566.435 867.824, 568.794 866.671, 570.048 863.374 C 571.190 860.370, 571.317 853, 570.227 853 C 569.801 853, 565.864 856.654, 561.477 861.119 M 325.200 863.425 C 322.624 865.859, 320.738 868.070, 321.008 868.338 C 322.072 869.395, 330.457 867.095, 331.691 865.408 C 333.522 862.903, 333.371 859, 331.442 859 C 330.585 859, 327.776 860.991, 325.200 863.425"
     stroke="none"
     fill="#000000"
     fill-rule="evenodd"
     id="path4" />
  <path
     d="m 217.23,737.394 c -16.298,16.612 -20.02,21.216 -18.432,22.804 1.808,1.808 20.113,1.417 23.837,-0.509 3.882,-2.008 34.647,-33.831 33.616,-34.773 -0.413,-0.377 -6.248,-0.898 -12.966,-1.156 l -12.215,-0.471 -13.84,14.105 m 173.52,2.798 c -9.212,9.397 -16.75,17.638 -16.75,18.311 0,1.533 6.745,2.499 17.39,2.49 l 8.11,-0.007 17.328,-17.994 c 10.377,-10.776 16.796,-18.165 16,-18.418 -0.73,-0.233 -6.728,-0.659 -13.328,-0.946 l -12,-0.523 -16.75,17.087 M 170,725.279 c -4.575,2.285 -5.998,6.976 -5.985,19.721 0.014,13.002 0.535,16.11 2.573,15.328 0.764,-0.293 8.843,-8.587 17.952,-18.431 L 201.102,724 l -14.301,0.015 c -9.407,0.009 -15.157,0.442 -16.801,1.264 m 41.5,-0.098 c -4.067,2.277 -14.844,12.351 -24.718,23.105 -9.432,10.272 -10.008,11.134 -8.044,12.01 2.536,1.132 5.129,-0.543 16.05,-10.365 7.996,-7.191 23.212,-23.612 23.212,-25.049 0,-1.234 -4.099,-1.045 -6.5,0.299 m 54.4,1.967 c -5.443,3.894 -24.336,23.146 -28.759,29.305 L 233.876,761 h 3.661 c 2.013,0 5.197,-0.729 7.074,-1.62 5.57,-2.643 31.387,-30.715 31.388,-34.13 0.002,-2.346 -5.652,-1.283 -10.099,1.898 m 19.45,-1.22 c -1.733,1.057 -4.619,4.092 -6.414,6.746 -1.796,2.655 -5.778,7.683 -8.85,11.175 -8.262,9.391 -11.086,13.295 -11.086,15.329 0,1.637 0.982,1.822 9.684,1.822 7.708,0 10.546,-0.417 13.904,-2.042 4.829,-2.338 34.849,-32.442 33.893,-33.988 -0.34,-0.55 -6.524,-0.968 -14.29,-0.966 -11.739,0.003 -14.14,0.277 -16.841,1.924 m 40.55,1.227 c -7.463,5.351 -30.9,30.283 -30.9,32.871 0,1.789 2.611,1.004 7.573,-2.276 5.467,-3.614 30.453,-27.973 32.312,-31.5 1.1,-2.087 0.977,-2.25 -1.7,-2.25 -1.64,0 -4.783,1.361 -7.285,3.155 m 7.552,9.939 c -12.827,14.071 -18.717,21.668 -17.866,23.045 0.883,1.429 19.676,0.987 24.902,-0.585 5.49,-1.652 10.281,-5.84 14.942,-13.059 1.777,-2.752 6.956,-8.94 11.509,-13.75 L 375.218,724 H 360.304 345.39 l -11.938,13.094 M 384.5,725.843 c -4.035,2.469 -22.472,21.89 -26.375,27.782 -5.25,7.926 -3.619,9.661 3.975,4.226 5.783,-4.138 32.9,-31.018 32.9,-32.613 0,-1.906 -7.061,-1.499 -10.5,0.605 m 56.84,2.007 c -2.662,2.117 -9.918,9.106 -16.125,15.53 -13.492,13.964 -16.512,19.1 -10.04,17.075 2.596,-0.813 32.929,-30.678 34.74,-34.205 1.045,-2.035 0.922,-2.25 -1.29,-2.25 -1.345,0 -4.623,1.732 -7.285,3.85 m 4.16,13.189 c -8.8,9.36 -16,17.568 -16,18.24 0,1.79 24.908,1.682 29.192,-0.126 1.772,-0.748 10.38,-8.87 19.343,-18.25 l 16.15,-16.903 -16.343,0.011 -16.342,0.011 -16,17.017 m 54.646,-12.49 c -7.751,5.827 -27,26.023 -27.786,29.153 -0.839,3.344 -0.053,3.704 3.797,1.74 3.769,-1.924 34.843,-32.502 34.843,-34.288 0,-2.519 -5.114,-0.919 -10.854,3.395 m 8.225,10.789 c -8.179,8.435 -15.66,16.72 -16.625,18.411 l -1.754,3.074 3.754,0.613 c 6.183,1.01 17.76,-0.948 22.507,-3.807 2.336,-1.407 11.447,-9.528 20.247,-18.045 l 16,-15.487 -14.629,-0.049 L 523.242,724 508.371,739.338 M 558,728.325 c -7.169,5.636 -25.107,24.602 -27.538,29.116 -2.197,4.08 -1.08,6.506 2.181,4.736 2.765,-1.501 36.357,-35.727 36.357,-37.044 0,-2.633 -5.691,-0.981 -11,3.192 m 20.9,-1.195 c -7.836,5.573 -30.9,30.175 -30.9,32.96 0,1.279 20.658,1.127 25.5,-0.187 4.671,-1.268 15.762,-11.892 17.996,-17.239 2.036,-4.873 2.834,-12.743 1.612,-15.914 -0.931,-2.42 -1.584,-2.75 -5.433,-2.75 -3.297,0 -5.459,0.771 -8.775,3.13 m 11.35,29.189 c -2.57,3.774 -2.765,4.687 -1,4.666 2.315,-0.029 3.716,-1.566 4.36,-4.785 0.823,-4.114 -0.511,-4.067 -3.36,0.119"
     stroke="none"
     fill="#9c6f00"
     fill-rule="evenodd"
     id="path1369"
     sodipodi:nodetypes="csccccccssccccccccsccccccccsccccsccccccsscssccssssccscsccccccccsccccssccssccccccccscccccsccccccccsccscscscccsc" />
  <path
     d="M 338.195 430.808 C 338.535 441.207, 339.074 445.402, 340.435 448.250 C 342.163 451.864, 342.161 452.136, 340.393 455.750 C 338.820 458.965, 338.554 462.116, 338.529 477.829 C 338.502 495.007, 338.626 496.252, 340.500 497.664 C 342.218 498.958, 347.740 499.121, 379.717 498.818 C 408.268 498.548, 417.233 498.168, 418.217 497.184 C 419.195 496.207, 419.579 488.021, 419.835 462.707 C 420.221 424.363, 419.876 419.508, 416.691 418.528 C 415.486 418.157, 397.231 417.687, 376.124 417.485 L 337.747 417.116 338.195 430.808 M 333.175 498.250 C 333.014 503.554, 333.170 504, 335.191 504 C 337.154 504, 337.211 503.870, 335.738 502.750 C 334.774 502.017, 333.940 499.640, 333.722 497 C 333.378 492.842, 333.336 492.937, 333.175 498.250"
     stroke="none"
     fill="#ff5555"
     fill-rule="evenodd"
     id="path2" />
  <path
     d="m 549.5,375.46 c -0.55,0.201 -2.229,0.636 -3.732,0.967 -3.292,0.725 -9.372,5.878 -11.176,9.471 -5.096,10.151 0.09,22.532 10.939,26.112 5.35,1.766 12.691,0.771 17.425,-2.362 11.551,-7.644 10.426,-25.43 -2.009,-31.763 -3.511,-1.788 -9.639,-3.086 -11.447,-2.425"
     stroke="none"
     fill="#9c6f00"
     fill-rule="evenodd"
     id="path6"
     sodipodi:nodetypes="cscccsc"
     style="fill:#ffcc00" />
  <path
     d="M 329 191.991 L 329 201 378.539 201 L 428.078 201 427.789 192.250 L 427.500 183.500 378.250 183.241 L 329 182.981 329 191.991 M 345 261.500 L 345 320 378 320 L 411 320 411 261.500 L 411 203 378 203 L 345 203 345 261.500 M 329.211 330.750 L 329.500 339.500 378.500 339.500 L 427.500 339.500 427.789 330.750 L 428.078 322 378.500 322 L 328.922 322 329.211 330.750 M 368 378.464 L 368 416 378.012 416 L 388.024 416 387.762 378.750 L 387.500 341.500 377.750 341.214 L 368 340.928 368 378.464"
     stroke="none"
     fill="#808080"
     fill-rule="evenodd"
     id="path10"
     style="stroke:#000000;stroke-width:2;stroke-miterlimit:4;stroke-dasharray:none" />
  <path
     d="m 545.637,658.412 c -10.836,4.011 -15.633,15.768 -10.64,26.082 8.563,17.689 36.605,11.067 36.308,-8.574 -0.19,-12.638 -13.781,-21.908 -25.668,-17.508"
     stroke="none"
     fill="#9c6f00"
     fill-rule="evenodd"
     id="path1367"
     sodipodi:nodetypes="cccc"
     style="fill:#ffcc00" />
  <path
     d="m 329.5,339.5 h 49 49 M 368,378.464 V 416 h 10.012 10.012 l -0.262,-37.25 -0.262,-37.25 -9.75,-0.286 -9.75,-0.286 v 37.536"
     stroke="none"
     fill="#808080"
     fill-rule="evenodd"
     id="path2111"
     style="stroke:#000000;stroke-width:2;stroke-miterlimit:4;stroke-dasharray:none;fill:#999999"
     sodipodi:nodetypes="cccccccccccc" />
</svg>
