<?xml version="1.0" encoding="UTF-8" standalone="no"?>
<svg
   version="1.0"
   width="1137.507pt"
   height="251.52058pt"
   viewBox="0 0 1137.5069 251.52058"
   preserveAspectRatio="xMidYMid meet"
   id="svg80"
   sodipodi:docname="reed_sensor.svg"
   inkscape:version="1.1.1 (3bf5ae0d25, 2021-09-20)"
   xmlns:inkscape="http://www.inkscape.org/namespaces/inkscape"
   xmlns:sodipodi="http://sodipodi.sourceforge.net/DTD/sodipodi-0.dtd"
   xmlns="http://www.w3.org/2000/svg"
   xmlns:svg="http://www.w3.org/2000/svg">
  <defs
     id="defs84" />
  <sodipodi:namedview
     id="namedview82"
     pagecolor="#ffffff"
     bordercolor="#666666"
     borderopacity="1.0"
     inkscape:pageshadow="2"
     inkscape:pageopacity="0.0"
     inkscape:pagecheckerboard="0"
     inkscape:document-units="pt"
     showgrid="false"
     inkscape:zoom="0.0625"
     inkscape:cx="-1128"
     inkscape:cy="-664"
     inkscape:window-width="1280"
     inkscape:window-height="738"
     inkscape:window-x="0"
     inkscape:window-y="0"
     inkscape:window-maximized="1"
     inkscape:current-layer="svg80" />
  <g
     id="g1003">
    <g
       id="g947">
      <g
         id="g4267"
         transform="translate(-9.95,-9.95)">
        <path
           d="m 74.6,13.1 c -1.4,1.7 -2.6,4.1 -2.6,5.4 0,2.7 4.5,8.5 6.6,8.5 1.1,0 1.4,1.6 1.4,7 v 7 H 45 10 v 71 71 h 35 35 v 7 c 0,5.4 -0.3,7 -1.4,7 -2.1,0 -6.6,5.8 -6.6,8.5 0,3.6 4.6,8.5 8,8.5 3.4,0 8,-4.9 8,-8.7 0,-1.5 -1.3,-3.8 -3.5,-6 C 81.2,196 81,195.4 81,189.4 V 183 h 35 35 V 147.5 112 h 19 c 15.4,0 19,0.3 19,1.4 0,2.4 5.1,6.6 8,6.6 3.6,0 8,-4.4 8,-8 0,-3.6 -4.4,-8 -8,-8 -2.6,0 -8,4.2 -8,6.1 0,0.5 -8.5,0.9 -19,0.9 H 151 V 76 41 H 116 81 v -6.4 c 0,-6 0.2,-6.6 3.5,-9.9 2.2,-2.2 3.5,-4.5 3.5,-6 0,-3.8 -4.6,-8.7 -8,-8.7 -1.9,0 -3.6,1 -5.4,3.1 z m 10.3,0.5 c 1.2,1.5 2.1,3.7 2.1,4.9 0,2.3 -3.5,7.5 -5.1,7.5 -0.5,0 -1,-1.9 -1.1,-4.3 l -0.1,-4.2 -0.4,4.2 C 80,24.5 79.4,26 78.5,26 76.6,26 73,21.1 73,18.5 73,15 76.7,11 80,11 c 1.9,0 3.6,0.9 4.9,2.6 z M 150,112 v 70 H 80.5 11 V 112 42 H 80.5 150 Z m 51.7,-4.8 c 2.9,2.7 2.9,6.5 0.1,9.5 -2.7,2.9 -6.5,2.9 -9.5,0.1 -3.4,-3.2 -2.9,-4.8 1.5,-5 l 3.7,-0.1 -3.7,-0.4 c -4.4,-0.5 -4.6,-0.9 -1.6,-4 2.7,-2.9 6.5,-2.9 9.5,-0.1 z m -121.5,95 0.1,4.3 0.4,-4.3 c 0.2,-2.3 0.8,-4.2 1.3,-4.2 1.5,0 5,5.2 5,7.5 0,3.5 -3.7,7.5 -7,7.5 -3.3,0 -7,-4 -7,-7.5 0,-2.7 3.6,-7.5 5.6,-7.5 1,0 1.5,1.3 1.6,4.2 z"
           id="path2"
           style="fill:#000000;stroke:#000000;stroke-width:0.1" />
        <path
           d="m 71.2,73.8 -9.3,8.7 9.4,9.3 9.4,9.3 8.6,-9.4 8.6,-9.4 -8.7,-8.6 -8.7,-8.6 z M 86,82.9 C 86,94 85.9,94.5 83.3,97.2 L 80.6,100 77.8,97.3 C 75,94.7 75,94.4 75,83.1 75,72 75.1,71.5 77.7,68.8 l 2.7,-2.8 2.8,2.7 C 86,71.3 86,71.6 86,82.9 Z m -12,0.3 v 10.2 l -5.5,-5.4 -5.6,-5.5 5,-4.8 c 2.7,-2.6 5.2,-4.7 5.5,-4.7 0.3,0 0.6,4.6 0.6,10.2 z m 18.3,4.2 c -2.7,2.8 -4.9,5.3 -5,5.5 C 87.1,93.1 87,88.7 87,83 V 72.6 l 5,4.9 5,4.9 z"
           id="path4"
           style="fill:#000000;stroke:#000000;stroke-width:0.1" />
        <path
           d="m 80.5,125.8 -17,8.7 -18.5,0.5 -18.5,0.6 17.8,0.2 17.7,0.2 18,-9 c 9.9,-5 18,-9.2 18,-9.5 0,-0.7 1.2,-1.3 -17.5,8.3 z"
           id="path6"
           style="fill:#000000;stroke:#000000;stroke-width:0.1" />
        <path
           d="m 102.3,135.7 c 4.8,0.2 12.5,0.2 17,0 4.5,-0.1 0.6,-0.3 -8.8,-0.3 -9.3,0 -13,0.2 -8.2,0.3 z"
           id="path8"
           style="fill:#000000;stroke:#000000;stroke-width:0.1" />
        <path
           d="m 27,156 v 9 h 24 24 v -9 -9 H 68.5 62 v 5.5 5.5 H 51 40 V 152.5 147 H 33.5 27 Z"
           id="path10"
           style="fill:#000000;stroke:#000000;stroke-width:0.1" />
        <path
           d="m 173,127.5 v 6.4 l -7.2,0.4 -7.3,0.3 7.8,0.2 7.7,0.2 v -6.5 -6.5 h 6 6 v 6.5 6.5 l 7.3,-0.2 7.2,-0.2 -6.7,-0.3 -6.8,-0.4 v -6.4 -6.5 h -7 -7 z"
           id="path42"
           style="fill:#000000;stroke:#000000;stroke-width:0.1" />
      </g>
      <text
         xml:space="preserve"
         style="font-size:18px;line-height:1.25;font-family:'JetBrains Mono';-inkscape-font-specification:'JetBrains Mono, Normal';font-variant-ligatures:none;stroke-width:0.75"
         x="38.330139"
         y="249.84059"
         id="text3308"><tspan
           sodipodi:role="line"
           id="tspan3306"
           style="stroke-width:0.75"
           x="38.330139"
           y="249.84059">Sensor Reed</tspan></text>
    </g>
    <g
       id="g10849"
       transform="translate(-5.6819459)">
      <g
         id="g10834"
         transform="translate(2.4134008)">
        <path
           d="m 471.33196,12.541929 c -1.5,1.5 -1.8,2.3 -0.9,2.6 0.7,0.2 1.8,-0.4 2.5,-1.3 1.6,-2.3 5,-1.5 5.4,1.2 0.2,1.4 -0.3,2.3 -1.7,2.8 -2.7,0.8 -2.7,2.1 -0.1,2.8 2.6,0.7 3.6,3.3 2,5.2 -1.6,2 -4.7,1.9 -5.8,-0.1 -0.5,-0.9 -1.4,-1.5 -2.1,-1.3 -2.2,0.8 1.8,4.9 4.8,4.9 5,0 8.1,-6.1 4.6,-9 -1.1,-0.9 -1.3,-1.6 -0.5,-2.4 1.7,-1.7 1.1,-5.5 -0.9,-6.6 -3,-1.5 -4.9,-1.2 -7.3,1.2 z"
           id="path14"
           style="fill:#000000;stroke:#000000;stroke-width:0.1" />
        <path
           d="m 428.13196,39.441929 c -3.6,4.2 -3.3,7.4 0.9,11.6 l 3.4,3.4 0.4,13.2 0.3,13.2 0.2,-13.8 c 0.2,-11 0.5,-13.7 1.6,-13.7 2.1,0 6.6,-5.8 6.6,-8.5 0,-3.6 -4.6,-8.5 -8,-8.5 -1.9,0 -3.6,1 -5.4,3.1 z m 10.3,0.5 c 1.2,1.5 2.1,3.7 2.1,4.9 0,2.7 -3.6,7.5 -5.6,7.5 -1,0 -1.5,-1.3 -1.6,-4.3 l -0.1,-4.2 -0.4,4.2 c -0.2,2.4 -0.8,4.3 -1.3,4.3 -1.5,0 -5,-5.2 -5,-7.5 0,-3.5 3.7,-7.5 7,-7.5 1.9,0 3.6,0.9 4.9,2.6 z"
           id="path20"
           style="fill:#000000;stroke:#000000;stroke-width:0.1" />
        <path
           d="m 409.63196,78.641929 c -0.1,0.4 2.4,5.7 5.4,11.8 3.1,6 5.3,11.400001 5,11.900001 -0.3,0.4 -0.1,1 0.4,1.2 0.5,0.1 3.4,5.4 6.5,11.5 l 5.6,11.3 v 13.5 c 0,7.4 -0.4,13.5 -0.9,13.5 -1.9,0 -6.1,5.4 -6.1,8 0,3.6 4.4,8 8,8 3.6,0 8,-4.4 8,-8 0,-2.9 -4.2,-8 -6.6,-8 -1.1,0 -1.4,-2.7 -1.4,-13.4 v -13.4 l -11.9,-24.3 c -6.6,-13.400001 -12,-24.100001 -12,-23.600001 z m 23.1,79.900001 0.1,4.3 0.4,-4.3 c 0.5,-4.7 1.6,-5.2 5,-2 2.9,2.7 2.9,6.5 0.1,9.5 -2.7,2.9 -6.5,2.9 -9.5,0.1 -2.9,-2.7 -2.9,-6.5 -0.1,-9.5 3,-3.3 3.8,-2.9 4,1.9 z"
           id="path28"
           style="fill:#000000;stroke:#000000;stroke-width:0.1" />
        <path
           d="m 331.53196,103.34193 v 18 h 9.5 9.5 v -3.5 -3.5 h -6 -6 v -11.5 -11.500001 h 6 6 v -3 -3 h -9.5 -9.5 z"
           id="path30"
           style="fill:#000000;stroke:#000000;stroke-width:0.1" />
        <path
           d="m 351.23196,95.141929 -7.6,7.700001 7.7,8.3 7.7,8.3 8,-8 c 5.5,-5.6 8.7,-8.1 10.5,-8.2 l 2.5,-0.2 -2.5,-0.4 c -1.3,-0.3 -6.1,-3.800001 -10.5,-7.900001 l -8.1,-7.3 z m 15.3,8.100001 c 0,7.3 -0.1,7.6 -3.7,11.3 l -3.7,3.8 -3.3,-3.2 c -3.2,-3.1 -3.3,-3.4 -3.3,-11.7 0,-8.200001 0.1,-8.600001 3.2,-11.800001 l 3.2,-3.3 3.8,3.7 c 3.7,3.6 3.8,3.8 3.8,11.200001 z m -15,-0.2 v 6.7 l -3.5,-3.4 -3.5,-3.4 3.2,-3.300001 c 1.8,-1.8 3.3,-3.3 3.5,-3.3 0.2,0 0.3,3 0.3,6.700001 z m 19.8,-3.400001 3.2,3.300001 -3.5,3.4 -3.5,3.4 v -6.7 c 0,-3.700001 0.1,-6.700001 0.3,-6.700001 0.2,0 1.7,1.5 3.5,3.3 z"
           id="path34"
           style="fill:#000000;stroke:#000000;stroke-width:0.1" />
        <path
           d="m 384.83196,103.04193 c 0.9,0.2 2.3,0.2 3,0 0.6,-0.3 -0.1,-0.5 -1.8,-0.5 -1.6,0 -2.2,0.2 -1.2,0.5 z"
           id="path44"
           style="fill:#000000;stroke:#000000;stroke-width:0.1" />
        <path
           d="m 393.83196,103.04193 c 0.9,0.2 2.3,0.2 3,0 0.6,-0.3 -0.1,-0.5 -1.8,-0.5 -1.6,0 -2.2,0.2 -1.2,0.5 z"
           id="path46"
           style="fill:#000000;stroke:#000000;stroke-width:0.1" />
        <path
           d="m 402.83196,103.04193 c 0.9,0.2 2.3,0.2 3,0 0.6,-0.3 -0.1,-0.5 -1.8,-0.5 -1.6,0 -2.2,0.2 -1.2,0.5 z"
           id="path48"
           style="fill:#000000;stroke:#000000;stroke-width:0.1" />
        <path
           d="m 411.83196,103.04193 c 0.9,0.2 2.3,0.2 3,0 0.6,-0.3 -0.1,-0.5 -1.8,-0.5 -1.6,0 -2.2,0.2 -1.2,0.5 z"
           id="path50"
           style="fill:#000000;stroke:#000000;stroke-width:0.1" />
        <path
           d="m 473.53196,180.34193 c -5.9,8.7 -6,9 -1.1,9 3.4,0 4.1,0.3 4.1,2 0,1.1 0.7,2 1.5,2 0.8,0 1.5,-0.9 1.5,-1.9 0,-1.1 0.6,-2.2 1.3,-2.5 1,-0.5 1,-0.7 0,-1.2 -0.9,-0.4 -1.3,-2.8 -1.3,-7 0,-3.5 -0.4,-6.4 -1,-6.4 -0.5,0 -2.8,2.7 -5,6 z m 2.7,6.7 c -0.3,0.2 -1.5,0.3 -2.6,0.1 -2,-0.3 -2,-0.3 0.2,-3.8 l 2.2,-3.5 0.3,3.3 c 0.2,1.9 0.1,3.6 -0.1,3.9 z"
           id="path72"
           style="fill:#000000;stroke:#000000;stroke-width:0.1" />
      </g>
      <text
         xml:space="preserve"
         style="font-size:18px;line-height:1.25;font-family:'JetBrains Mono';-inkscape-font-specification:'JetBrains Mono, Normal';font-variant-ligatures:none;stroke-width:0.75"
         x="333.17255"
         y="240.9655"
         id="text3308-3"><tspan
           sodipodi:role="line"
           id="tspan3306-7"
           style="stroke-width:0.75"
           x="333.17255"
           y="240.9655">Switch Reed NA</tspan></text>
    </g>
    <g
       id="g10863"
       transform="translate(16.799103)">
      <g
         id="g4244"
         transform="translate(-3.772283,-18.616489)">
        <path
           d="m 751.8,29.5 c -3.3,2.9 -3.8,5.1 -0.8,3.5 1.9,-1 2,-0.8 2,6 0,5.6 0.3,7 1.5,7 1.2,0 1.5,-1.7 1.5,-9.5 0,-5.2 -0.3,-9.5 -0.7,-9.5 -0.5,0 -2,1.2 -3.5,2.5 z"
           id="path12"
           style="fill:#000000;stroke:#000000;stroke-width:0.1" />
        <path
           d="m 705.6,60.1 c -3.6,4.2 -3.3,7.4 0.9,11.6 l 3.5,3.5 V 88.1 101 h 12 12 l -5.5,11 c -3.8,7.5 -6.1,11 -7.3,11.1 -1,0 -1.2,0.3 -0.5,0.6 0.9,0.3 -0.7,4.3 -4.7,12.4 l -6,11.9 v 13 c 0,7.1 -0.4,13 -0.9,13 -1.9,0 -6.1,5.4 -6.1,8 0,3.6 4.4,8 8,8 3.6,0 8,-4.4 8,-8 0,-2.9 -4.2,-8 -6.6,-8 -1.1,0 -1.4,-2.7 -1.4,-13.3 v -13.2 l 12.1,-23.3 c 11.8,-22.7 12.1,-23.2 15.1,-23.2 1.7,0 2.9,-0.3 2.5,-0.6 -0.3,-0.3 -7.1,-0.5 -15.1,-0.5 L 711,100.1 V 87 c 0,-10.5 0.3,-13 1.4,-13 2.1,0 6.6,-5.8 6.6,-8.5 0,-3.6 -4.6,-8.5 -8,-8.5 -1.9,0 -3.6,1 -5.4,3.1 z m 10.3,0.5 c 1.2,1.5 2.1,3.7 2.1,4.9 0,2.7 -3.6,7.5 -5.6,7.5 -1,0 -1.5,-1.3 -1.6,-4.3 l -0.1,-4.2 -0.4,4.2 c -0.2,2.4 -0.8,4.3 -1.3,4.3 -1.5,0 -5,-5.2 -5,-7.5 0,-3.5 3.7,-7.5 7,-7.5 1.9,0 3.6,0.9 4.9,2.6 z m -5.7,118.6 0.1,4.3 0.4,-4.3 c 0.5,-4.7 1.6,-5.2 5,-2 2.9,2.7 2.9,6.5 0.1,9.5 -2.7,2.9 -6.5,2.9 -9.5,0.1 -2.9,-2.7 -2.9,-6.5 -0.1,-9.5 3,-3.3 3.8,-2.9 4,1.9 z"
           id="path22"
           style="fill:#000000;stroke:#000000;stroke-width:0.1" />
        <path
           d="m 633,124 v 18 h 9 9 v -3.5 -3.5 h -6 -6 V 123.5 112 h 6 6 v -3 -3 h -9 -9 z"
           id="path32"
           style="fill:#000000;stroke:#000000;stroke-width:0.1" />
        <path
           d="m 652.2,115.8 -8.3,7.7 8.4,8.3 8.4,8.4 7.2,-8.1 c 4.9,-5.3 8.2,-8.1 9.9,-8.4 l 2.7,-0.4 -2.6,-0.2 c -1.7,0 -4,-1.5 -6.1,-3.9 -1.9,-2 -5.3,-5.4 -7.4,-7.4 l -3.9,-3.7 z m 15.8,7.9 c 0,7 -0.2,7.5 -3.7,11.3 l -3.6,4.1 -3.9,-3.8 c -3.7,-3.6 -3.8,-3.8 -3.8,-11.2 0,-7.3 0.1,-7.6 3.7,-11.3 l 3.7,-3.8 3.8,3.7 c 3.7,3.6 3.8,3.9 3.8,11 z m -16,0 v 6.7 l -3.5,-3.4 -3.5,-3.4 3.2,-3.3 c 1.8,-1.8 3.3,-3.3 3.5,-3.3 0.2,0 0.3,3 0.3,6.7 z m 20.3,2.5 c -1.5,1.5 -2.8,2.8 -3,2.8 -0.2,0 -0.3,-2.6 -0.3,-5.7 v -5.7 l 3,2.9 3,2.9 z"
           id="path36"
           style="fill:#000000;stroke:#000000;stroke-width:0.1" />
        <path
           d="m 685.3,123.7 c 0.9,0.2 2.3,0.2 3,0 0.6,-0.3 -0.1,-0.5 -1.8,-0.5 -1.6,0 -2.2,0.2 -1.2,0.5 z"
           id="path52"
           style="fill:#000000;stroke:#000000;stroke-width:0.1" />
        <path
           d="m 694.3,123.7 c 0.9,0.2 2.3,0.2 3,0 0.6,-0.3 -0.1,-0.5 -1.8,-0.5 -1.6,0 -2.2,0.2 -1.2,0.5 z"
           id="path54"
           style="fill:#000000;stroke:#000000;stroke-width:0.1" />
        <path
           d="m 703.3,123.7 c 0.9,0.2 2.3,0.2 3,0 0.6,-0.3 -0.1,-0.5 -1.8,-0.5 -1.6,0 -2.2,0.2 -1.2,0.5 z"
           id="path56"
           style="fill:#000000;stroke:#000000;stroke-width:0.1" />
        <path
           d="m 712.3,123.7 c 0.9,0.2 2.3,0.2 3,0 0.6,-0.3 -0.1,-0.5 -1.8,-0.5 -1.6,0 -2.2,0.2 -1.2,0.5 z"
           id="path58"
           style="fill:#000000;stroke:#000000;stroke-width:0.1" />
        <path
           d="m 748.5,197.2 c -1.1,1.6 -1.2,2.4 -0.4,2.7 0.7,0.2 1.6,-0.4 2.1,-1.3 1.6,-2.9 6.8,-1.3 6.8,2.1 0,0.6 -2.2,3.5 -5,6.2 -2.7,2.8 -5,5.5 -5,6.1 0,0.6 2.5,1 6,1 3.3,0 6,-0.4 6,-1 0,-0.6 -2.1,-1 -4.7,-1 h -4.7 l 4.7,-4.5 c 3,-2.8 4.7,-5.3 4.7,-6.8 0,-5.3 -7.5,-7.7 -10.5,-3.5 z"
           id="path74"
           style="fill:#000000;stroke:#000000;stroke-width:0.1" />
      </g>
      <text
         xml:space="preserve"
         style="font-size:18px;line-height:1.25;font-family:'JetBrains Mono';-inkscape-font-specification:'JetBrains Mono, Normal';font-variant-ligatures:none;stroke-width:0.75"
         x="616.7179"
         y="243.00708"
         id="text5186"><tspan
           sodipodi:role="line"
           id="tspan5184"
           style="stroke-width:0.75"
           x="616.7179"
           y="243.00708">Switch Reed NC</tspan></text>
    </g>
    <g
       id="g10881">
      <g
         id="g4259"
         transform="translate(14.240237,-20.652499)">
        <path
           d="m 923.5,33.2 c -1.1,1.6 -1.2,2.4 -0.4,2.7 0.7,0.2 1.6,-0.4 2.1,-1.3 1.6,-2.9 6.8,-1.3 6.8,2.1 0,0.6 -2.2,3.5 -5,6.2 -2.7,2.8 -5,5.5 -5,6.1 0,0.6 2.5,1 6,1 3.3,0 6,-0.4 6,-1 0,-0.6 -2.1,-1 -4.7,-1 h -4.7 l 4.7,-4.5 c 3,-2.8 4.7,-5.3 4.7,-6.8 0,-5.3 -7.5,-7.7 -10.5,-3.5 z"
           id="path16"
           style="fill:#000000;stroke:#000000;stroke-width:0.1" />
        <path
           d="m 1078,37 c -5.9,8.7 -6,9 -1.1,9 3.4,0 4.1,0.3 4.1,2 0,1.1 0.7,2 1.5,2 0.8,0 1.5,-0.9 1.5,-1.9 0,-1.1 0.6,-2.2 1.3,-2.5 1,-0.5 1,-0.7 0,-1.2 -0.9,-0.4 -1.3,-2.8 -1.3,-7 0,-3.5 -0.4,-6.4 -1,-6.4 -0.5,0 -2.8,2.7 -5,6 z m 2.7,6.7 c -0.3,0.2 -1.5,0.3 -2.6,0.1 -2,-0.3 -2,-0.3 0.2,-3.8 l 2.2,-3.5 0.3,3.3 c 0.2,1.9 0.1,3.6 -0.1,3.9 z"
           id="path18"
           style="fill:#000000;stroke:#000000;stroke-width:0.1" />
        <path
           d="m 962.6,60.1 c -3.6,4.2 -3.3,7.4 0.9,11.6 l 3.5,3.5 V 88.1 101 h 11.8 11.7 l 6.3,12.5 c 3.4,6.9 6.2,12.7 6.2,12.9 0,0.3 -0.6,0.6 -1.2,0.9 -0.7,0.2 -0.6,0.3 0.3,0.2 1.1,-0.2 3.2,2.9 6.7,10.1 l 5.2,10.4 v 13 c 0,7.3 -0.4,13 -0.9,13 -0.5,0 -2.3,1.2 -4,2.6 -2.1,1.8 -3.1,3.5 -3.1,5.4 0,3.4 4.9,8 8.5,8 3.6,0 8.5,-4.6 8.5,-8 0,-1.9 -1,-3.6 -3.1,-5.4 -1.7,-1.4 -3.5,-2.6 -4,-2.6 -0.5,0 -0.9,-5.7 -0.9,-13 v -13 l -11.5,-23 C 997.2,112.4 992,101.8 992,101.6 c 0,-0.3 1.5,-0.7 3.3,-0.9 1.7,-0.2 -3.7,-0.5 -12,-0.5 L 968,100 V 87 c 0,-10.5 0.3,-13 1.4,-13 2.1,0 6.6,-5.8 6.6,-8.5 0,-3.6 -4.6,-8.5 -8,-8.5 -1.9,0 -3.6,1 -5.4,3.1 z m 10.3,0.5 c 1.2,1.5 2.1,3.7 2.1,4.9 0,2.7 -3.6,7.5 -5.6,7.5 -1,0 -1.5,-1.3 -1.6,-4.3 l -0.1,-4.2 -0.4,4.2 c -0.2,2.4 -0.8,4.3 -1.3,4.3 -1.5,0 -5,-5.2 -5,-7.5 0,-3.5 3.7,-7.5 7,-7.5 1.9,0 3.6,0.9 4.9,2.6 z m 41.3,118.6 0.1,4.3 0.4,-4.3 c 0.5,-4.8 1,-5 4.7,-2.1 1.7,1.3 2.6,3 2.6,4.9 0,3.3 -4,7 -7.5,7 -3.5,0 -7.5,-3.7 -7.5,-7 0,-1.9 0.9,-3.6 2.6,-4.9 3.8,-3 4.4,-2.7 4.6,2.1 z"
           id="path24"
           style="fill:#000000;stroke:#000000;stroke-width:0.1" />
        <path
           d="m 1032.6,60.1 c -3.6,4.2 -3.3,7.4 0.9,11.6 l 3.4,3.4 0.4,13.2 0.3,13.2 0.2,-13.8 c 0.2,-11 0.5,-13.7 1.6,-13.7 2.1,0 6.6,-5.8 6.6,-8.5 0,-3.6 -4.6,-8.5 -8,-8.5 -1.9,0 -3.6,1 -5.4,3.1 z m 10.3,0.5 c 1.2,1.5 2.1,3.7 2.1,4.9 0,2.7 -3.6,7.5 -5.6,7.5 -1,0 -1.5,-1.3 -1.6,-4.3 l -0.1,-4.2 -0.4,4.2 c -0.2,2.4 -0.8,4.3 -1.3,4.3 -1.5,0 -5,-5.2 -5,-7.5 0,-3.5 3.7,-7.5 7,-7.5 1.9,0 3.6,0.9 4.9,2.6 z"
           id="path26"
           style="fill:#000000;stroke:#000000;stroke-width:0.1" />
        <path
           d="m 915,128 v 18 h 9 9 V 142.5 139 H 927.5 922 V 127.5 116 h 5.5 c 5.4,0 5.5,0 5.5,-3 v -3 h -9 -9 z"
           id="path38"
           style="fill:#000000;stroke:#000000;stroke-width:0.1" />
        <path
           d="m 934.9,119 c -4.1,4.5 -7.3,8.4 -7.2,8.7 0.1,0.2 3.4,4 7.4,8.4 l 7.2,8.1 8.1,-8 c 4.5,-4.4 8.8,-8.2 9.6,-8.5 1.3,-0.5 1.3,-0.6 0,-0.6 -0.8,-0.1 -5.1,-3.7 -9.6,-8.2 l -8.1,-8.1 z m 15.1,8.4 c 0,7.9 -0.1,8.1 -3.7,11.8 l -3.7,3.8 -3.8,-3.7 c -3.8,-3.7 -3.8,-3.8 -3.8,-11.7 0,-7.9 0.1,-8.1 3.7,-11.8 l 3.7,-3.8 3.8,3.7 c 3.8,3.7 3.8,3.8 3.8,11.7 z m 4.8,-3.1 3.2,3.3 -3.5,3.4 -3.5,3.4 v -6.7 c 0,-3.7 0.1,-6.7 0.3,-6.7 0.2,0 1.7,1.5 3.5,3.3 z m -20.8,3.4 v 5.7 l -3,-2.9 -3,-2.9 2.7,-2.8 c 1.5,-1.5 2.8,-2.8 3,-2.8 0.2,0 0.3,2.6 0.3,5.7 z"
           id="path40"
           style="fill:#000000;stroke:#000000;stroke-width:0.1" />
        <path
           d="m 964.8,127.7 c 0.7,0.3 1.6,0.2 1.9,-0.1 0.4,-0.3 -0.2,-0.6 -1.3,-0.5 -1.1,0 -1.4,0.3 -0.6,0.6 z"
           id="path60"
           style="fill:#000000;stroke:#000000;stroke-width:0.1" />
        <path
           d="m 970.8,127.7 c 0.7,0.3 1.6,0.2 1.9,-0.1 0.4,-0.3 -0.2,-0.6 -1.3,-0.5 -1.1,0 -1.4,0.3 -0.6,0.6 z"
           id="path62"
           style="fill:#000000;stroke:#000000;stroke-width:0.1" />
        <path
           d="m 976.8,127.7 c 0.7,0.3 1.6,0.2 1.9,-0.1 0.4,-0.3 -0.2,-0.6 -1.3,-0.5 -1.1,0 -1.4,0.3 -0.6,0.6 z"
           id="path64"
           style="fill:#000000;stroke:#000000;stroke-width:0.1" />
        <path
           d="m 982.8,127.7 c 0.7,0.3 1.6,0.2 1.9,-0.1 0.4,-0.3 -0.2,-0.6 -1.3,-0.5 -1.1,0 -1.4,0.3 -0.6,0.6 z"
           id="path66"
           style="fill:#000000;stroke:#000000;stroke-width:0.1" />
        <path
           d="m 988.8,127.7 c 0.7,0.3 1.6,0.2 1.9,-0.1 0.4,-0.3 -0.2,-0.6 -1.3,-0.5 -1.1,0 -1.4,0.3 -0.6,0.6 z"
           id="path68"
           style="fill:#000000;stroke:#000000;stroke-width:0.1" />
        <path
           d="m 994.8,127.7 c 0.7,0.3 1.6,0.2 1.9,-0.1 0.4,-0.3 -0.2,-0.6 -1.3,-0.5 -1.1,0 -1.4,0.3 -0.6,0.6 z"
           id="path70"
           style="fill:#000000;stroke:#000000;stroke-width:0.1" />
        <path
           d="m 1055.8,197.5 c -3.3,2.9 -3.8,5.1 -0.8,3.5 1.9,-1 2,-0.8 2,6 0,5.6 0.3,7 1.5,7 1.2,0 1.5,-1.7 1.5,-9.5 0,-5.2 -0.3,-9.5 -0.7,-9.5 -0.5,0 -2,1.2 -3.5,2.5 z"
           id="path76"
           style="fill:#000000;stroke:#000000;stroke-width:0.1" />
      </g>
      <text
         xml:space="preserve"
         style="font-size:18px;line-height:1.25;font-family:'JetBrains Mono';-inkscape-font-specification:'JetBrains Mono, Normal';font-variant-ligatures:none;stroke-width:0.75"
         x="890.72754"
         y="241.04309"
         id="text5190"><tspan
           sodipodi:role="line"
           id="tspan5188"
           style="stroke-width:0.75"
           x="890.72754"
           y="241.04309">Switch Reed Conmutación</tspan></text>
    </g>
  </g>
</svg>
